<svg width="40" height="40" viewBox="0 0 40 40" fill="none" xmlns="http://www.w3.org/2000/svg">
<path d="M11.25 12.2793C11.25 17.043 11.2559 17.498 11.3184 18.0859C11.6348 21.0117 13.2695 23.3613 15.8496 24.6016C16.8574 25.0859 17.8906 25.3672 19.1211 25.4922C19.4414 25.5254 20.5586 25.5254 20.8789 25.4922C21.6758 25.4121 22.3145 25.2793 23.0078 25.0547C24.0332 24.7207 24.9453 24.2344 25.7617 23.582C26.0625 23.3418 26.6543 22.7598 26.8848 22.4746C27.7852 21.3672 28.3555 20.082 28.6016 18.5938C28.7266 17.8379 28.7188 18.2305 28.7246 12.6113L28.7305 7.5H26.4355H24.1406L24.1348 12.3184L24.1309 17.1387L24.0879 17.3984C23.873 18.6973 23.2676 19.666 22.2617 20.3203C22.0566 20.4531 21.6777 20.6387 21.4355 20.7227C20.3242 21.1094 19.0742 21.0293 18.0527 20.5059C16.9766 19.9512 16.2383 18.9727 15.9688 17.7344C15.8438 17.1602 15.8516 17.5195 15.8457 12.2695L15.8379 7.5H13.5449H11.25V12.2793Z" fill="#2D6CE5"/>
<path d="M12.0117 30.2344V32.5H19.9902H27.9688V30.2344V27.9688H19.9902H12.0117V30.2344Z" fill="#2D6CE5"/>
</svg>
