<svg width="16" height="14" viewBox="0 0 16 14" fill="none" xmlns="http://www.w3.org/2000/svg">
<path d="M2.49925 1.99967H14.1659C14.6242 1.99967 14.9992 1.62467 14.9992 1.16634C14.9992 0.708008 14.6242 0.333008 14.1659 0.333008H2.49925C2.04091 0.333008 1.66591 0.708008 1.66591 1.16634C1.66591 1.62467 2.04091 1.99967 2.49925 1.99967ZM15.1326 3.49967C15.0576 3.11634 14.7159 2.83301 14.3159 2.83301H2.34925C1.94925 2.83301 1.60758 3.11634 1.53258 3.49967L0.699247 7.66634C0.599248 8.18301 0.990914 8.66634 1.51591 8.66634H1.66591V12.833C1.66591 13.2913 2.04091 13.6663 2.49925 13.6663H9.16591C9.62425 13.6663 9.99925 13.2913 9.99925 12.833V8.66634H13.3326V12.833C13.3326 13.2913 13.7076 13.6663 14.1659 13.6663C14.6242 13.6663 14.9992 13.2913 14.9992 12.833V8.66634H15.1492C15.6742 8.66634 16.0659 8.18301 15.9659 7.66634L15.1326 3.49967ZM8.33258 11.9997H3.33258V8.66634H8.33258V11.9997Z" fill="#007AFF"/>
</svg> 
