<svg width="20" height="20" viewBox="0 0 20 20" fill="none" xmlns="http://www.w3.org/2000/svg">
<path d="M4.16699 11.5001C3.39042 11.5001 3.00214 11.5001 2.69585 11.3732C2.28747 11.2041 1.96302 10.8796 1.79386 10.4712C1.66699 10.1649 1.66699 9.77665 1.66699 9.00008V5.33342C1.66699 4.39999 1.66699 3.93328 1.84865 3.57676C2.00844 3.26316 2.2634 3.00819 2.57701 2.8484C2.93353 2.66675 3.40024 2.66675 4.33366 2.66675H11.0003C11.7769 2.66675 12.1652 2.66675 12.4715 2.79362C12.8798 2.96277 13.2043 3.28723 13.3735 3.69561C13.5003 4.00189 13.5003 4.39018 13.5003 5.16675M10.167 16.3334H15.667C16.6004 16.3334 17.0671 16.3334 17.4236 16.1518C17.7372 15.992 17.9922 15.737 18.152 15.4234C18.3337 15.0669 18.3337 14.6002 18.3337 13.6667V10.1667C18.3337 9.23333 18.3337 8.76662 18.152 8.4101C17.9922 8.09649 17.7372 7.84153 17.4236 7.68174C17.0671 7.50008 16.6004 7.50008 15.667 7.50008H12.917H10.167C9.23357 7.50008 7.76686 7.50008 7.41034 7.68174C7.09674 7.84153 6.84177 8.09649 6.68198 8.4101C6.50033 8.76662 6.50033 9.23333 6.50033 10.1667V13.6667C6.50033 14.6002 6.50033 15.0669 6.68198 15.4234C6.84177 15.737 7.09674 15.992 7.41034 16.1518C7.76686 16.3334 9.23357 16.3334 10.167 16.3334Z" stroke="rgba(55, 53, 47, 0.85)" stroke-width="1.66667" stroke-linecap="round" stroke-linejoin="round"/>
<rect x="8" y="10" width="6" height="1" rx="0.5" fill="rgba(55, 53, 47, 0.85)"/>
<rect x="8" y="12" width="4" height="1" rx="0.5" fill="rgba(55, 53, 47, 0.85)"/>
</svg>
