<svg width="20" height="20" viewBox="0 0 20 20" fill="none" xmlns="http://www.w3.org/2000/svg">
<path d="M17.5 9.16675L11.1716 2.83832C10.7392 2.40594 10.523 2.18975 10.2707 2.03515C10.047 1.89808 9.80317 1.79707 9.54808 1.73582C9.26036 1.66675 8.95462 1.66675 8.34314 1.66675L5 1.66675M2.5 7.25008L2.5 8.89551C2.5 9.30316 2.5 9.50699 2.54605 9.6988C2.58688 9.86886 2.65422 10.0314 2.7456 10.1806C2.84867 10.3488 2.9928 10.4929 3.28105 10.7811L9.78105 17.2811C10.4411 17.9412 10.7711 18.2712 11.1516 18.3948C11.4864 18.5036 11.847 18.5036 12.1817 18.3948C12.5622 18.2712 12.8923 17.9412 13.5523 17.2811L15.6144 15.219C16.2744 14.559 16.6044 14.229 16.7281 13.8484C16.8368 13.5137 16.8368 13.1531 16.7281 12.8184C16.6044 12.4378 16.2744 12.1078 15.6144 11.4478L9.53105 5.36446C9.2428 5.07621 9.09867 4.93208 8.93048 4.82901C8.78135 4.73763 8.61878 4.67029 8.44872 4.62946C8.25691 4.58341 8.05308 4.58341 7.64543 4.58341H5.16667C4.23325 4.58341 3.76654 4.58341 3.41002 4.76507C3.09641 4.92486 2.84145 5.17983 2.68166 5.49343C2.5 5.84995 2.5 6.31666 2.5 7.25008Z" stroke="rgba(55, 53, 47, 0.85)" stroke-width="1.66667" stroke-linecap="round" stroke-linejoin="round"/>
<g clip-path="url(#clip0_259_10355)">
<path d="M8.17823 11.1252C7.86583 11.4376 7.86583 11.9441 8.17823 12.2565L8.70347 12.7818C9.03817 13.1165 9.58085 13.1165 9.91555 12.7818C10.2503 12.447 10.2503 11.9044 9.91555 11.5697L9.43072 11.0848C9.09601 10.7501 9.09601 10.2075 9.43072 9.87275C9.76543 9.53804 10.3081 9.53804 10.6428 9.87275L11.168 10.398C11.4804 10.7104 11.4804 11.2169 11.168 11.5293M11.2489 9.75154L10.8852 10.1152M8.46105 12.5393L8.09742 12.903" stroke="rgba(55, 53, 47, 0.85)" stroke-width="0.9" stroke-linecap="round" stroke-linejoin="round"/>
</g>
<defs>
<clipPath id="clip0_259_10355">
<rect width="6.58234" height="6.58234" fill="white" transform="translate(9.67285 6.67285) rotate(45)"/>
</clipPath>
</defs>
</svg>
