<svg width="17" height="20" viewBox="0 0 17 20" fill="none" xmlns="http://www.w3.org/2000/svg">
<path d="M15 2.49967H14.1667V1.66634C14.1667 1.20801 13.7917 0.833008 13.3333 0.833008C12.875 0.833008 12.5 1.20801 12.5 1.66634V2.49967H4.16667V1.66634C4.16667 1.20801 3.79167 0.833008 3.33333 0.833008C2.875 0.833008 2.5 1.20801 2.5 1.66634V2.49967H1.66667C0.75 2.49967 0 3.24967 0 4.16634V17.4997C0 18.4163 0.75 19.1663 1.66667 19.1663H15C15.9167 19.1663 16.6667 18.4163 16.6667 17.4997V4.16634C16.6667 3.24967 15.9167 2.49967 15 2.49967ZM14.1667 17.4997H2.5C2.04167 17.4997 1.66667 17.1247 1.66667 16.6663V6.66634H15V16.6663C15 17.1247 14.625 17.4997 14.1667 17.4997Z" fill="#007AFF"/>
</svg> 
