<svg width="20" height="20" viewBox="0 0 20 20" fill="none" xmlns="http://www.w3.org/2000/svg">
<path d="M10.0003 12.9167H6.25033C5.08736 12.9167 4.50587 12.9167 4.03271 13.0602C2.96737 13.3834 2.13369 14.217 1.81053 15.2824C1.66699 15.7555 1.66699 16.337 1.66699 17.5M12.0837 6.25C12.0837 8.32107 10.4047 10 8.33366 10C6.26259 10 4.58366 8.32107 4.58366 6.25C4.58366 4.17893 6.26259 2.5 8.33366 2.5C10.4047 2.5 12.0837 4.17893 12.0837 6.25Z" stroke="black" stroke-width="1.66667" stroke-linecap="round" stroke-linejoin="round"/>
<path d="M13.125 14.3333V13.6667C13.125 12.7462 13.9645 12 15 12C15.7689 12 16.4296 12.4114 16.719 13M15 15.8333V16.5M13.8 18H16.2C16.8301 18 17.1451 18 17.3857 17.891C17.5974 17.7951 17.7695 17.6422 17.8774 17.454C18 17.2401 18 16.9601 18 16.4V15.9333C18 15.3733 18 15.0933 17.8774 14.8793C17.7695 14.6912 17.5974 14.5382 17.3857 14.4423C17.1451 14.3333 16.8301 14.3333 16.2 14.3333H13.8C13.1699 14.3333 12.8549 14.3333 12.6143 14.4423C12.4026 14.5382 12.2305 14.6912 12.1226 14.8793C12 15.0933 12 15.3733 12 15.9333V16.4C12 16.9601 12 17.2401 12.1226 17.454C12.2305 17.6422 12.4026 17.7951 12.6143 17.891C12.8549 18 13.1699 18 13.8 18Z" stroke="black" stroke-width="1.2" stroke-linecap="round" stroke-linejoin="round"/>
</svg>
