 <svg width="16" height="16" viewBox="0 0 16 16" fill="none" xmlns="http://www.w3.org/2000/svg">
<path fillRule="evenodd" clipRule="evenodd" d="M7.243 1.03009C7.50026 1.09455 7.72137 1.25855 7.85771 1.48603C7.99405 1.71351 8.03444 1.98583 7.97 2.24309L7.53 4.00009H10.47L11.03 1.75709C11.0611 1.6289 11.1173 1.50813 11.1954 1.40175C11.2734 1.29538 11.3717 1.20549 11.4846 1.13726C11.5975 1.06904 11.7228 1.02383 11.8533 1.00425C11.9837 0.984661 12.1168 0.991081 12.2447 1.02314C12.3727 1.0552 12.4931 1.11226 12.5989 1.19104C12.7047 1.26982 12.7939 1.36875 12.8613 1.48215C12.9287 1.59555 12.973 1.72116 12.9917 1.85176C13.0103 1.98236 13.003 2.11536 12.97 2.24309L12.53 4.00009H15C15.2652 4.00009 15.5196 4.10545 15.7071 4.29298C15.8946 4.48052 16 4.73487 16 5.00009C16 5.26531 15.8946 5.51966 15.7071 5.7072C15.5196 5.89473 15.2652 6.00009 15 6.00009H12.03L11.03 10.0001H13C13.2652 10.0001 13.5196 10.1054 13.7071 10.293C13.8946 10.4805 14 10.7349 14 11.0001C14 11.2653 13.8946 11.5197 13.7071 11.7072C13.5196 11.8947 13.2652 12.0001 13 12.0001H10.53L9.97 14.2421C9.94001 14.3714 9.88457 14.4935 9.80691 14.6012C9.72925 14.7089 9.63092 14.8 9.51767 14.8693C9.40441 14.9385 9.2785 14.9846 9.14726 15.0047C9.01603 15.0248 8.88211 15.0186 8.75331 14.9864C8.62451 14.9542 8.50341 14.8966 8.39707 14.8171C8.29074 14.7376 8.2013 14.6378 8.13397 14.5233C8.06664 14.4089 8.02277 14.2822 8.00492 14.1507C7.98707 14.0191 7.9956 13.8853 8.03 13.7571L8.47 12.0001H5.53L4.97 14.2421C4.94001 14.3714 4.88457 14.4935 4.80691 14.6012C4.72925 14.7089 4.63092 14.8 4.51767 14.8693C4.40441 14.9385 4.2785 14.9846 4.14726 15.0047C4.01603 15.0248 3.88211 15.0186 3.75331 14.9864C3.62451 14.9542 3.50341 14.8966 3.39707 14.8171C3.29074 14.7376 3.2013 14.6378 3.13397 14.5233C3.06664 14.4089 3.02277 14.2822 3.00492 14.1507C2.98707 14.0191 2.9956 13.8853 3.03 13.7571L3.47 12.0001H1C0.734784 12.0001 0.48043 11.8947 0.292893 11.7072C0.105357 11.5197 0 11.2653 0 11.0001C0 10.7349 0.105357 10.4805 0.292893 10.293C0.48043 10.1054 0.734784 10.0001 1 10.0001H3.97L4.97 6.00009H3C2.73478 6.00009 2.48043 5.89473 2.29289 5.7072C2.10536 5.51966 2 5.26531 2 5.00009C2 4.73487 2.10536 4.48052 2.29289 4.29298C2.48043 4.10545 2.73478 4.00009 3 4.00009H5.47L6.03 1.75709C6.09445 1.49984 6.25846 1.27872 6.48594 1.14238C6.71342 1.00604 6.98574 0.965651 7.243 1.03009ZM7.03 6.00009L6.03 10.0001H8.968L9.968 6.00009H7.031H7.03Z" fill="#0E73F6"/>
</svg>
