<svg width="24" height="24" viewBox="0 0 24 24" fill="none" xmlns="http://www.w3.org/2000/svg">
<path d="M7 4.50007C7 6.15692 6.15685 7 4.5 7C2.84315 7 2 6.15692 2 4.50007C2 2.84321 2.84315 2 4.5 2C6.15685 2 7 2.84321 7 4.50007ZM7 4.50007H9.4344C12.4816 4.50007 12 6.34154 12 7.89228C12 8.5 12 9.5 12 10M12.2177 14.1875C12.2177 16.5 12.2177 16.5 12.2177 17.5C12.2177 17.5812 12.2177 17.6219 12.2177 17.5C12.2177 17.5 12.2177 17.5 12.2177 17.5C12.2177 17.6851 12.2177 17.3766 12.2177 17.5V17.5C12.2177 17.9647 12.2177 18.197 12.2562 18.3903C12.414 19.1836 13.0342 19.8038 13.8275 19.9616C14.0207 20 14.2531 20 14.7178 20L18 20M12.2177 14.1875H20.5V10H3.5V14.1875H12.2177ZM18 20C18.2445 21.3263 19.019 22 20.5 22C22.1569 22 23 21.1569 23 19.5C23 17.8431 22.1569 17 20.5 17C18.8431 17 18 17.8431 18 19.5C18 19.6758 17.971 19.8425 18 20Z" stroke="rgba(55, 53, 47, 0.85)" stroke-width="1.5" stroke-linecap="round" stroke-linejoin="round"/>
</svg>
