<svg width="17" height="16" viewBox="0 0 17 16" fill="none" xmlns="http://www.w3.org/2000/svg">
<path fillRule="evenodd" clipRule="evenodd" d="M4.93385 1.45486C5.57711 1.4035 6.18776 1.15049 6.67885 0.73186C7.23351 0.259451 7.93828 0 8.66685 0C9.39543 0 10.1002 0.259451 10.6549 0.73186C11.1459 1.15049 11.7566 1.4035 12.3999 1.45486C13.1263 1.51292 13.8083 1.82782 14.3236 2.34313C14.8389 2.85843 15.1538 3.54043 15.2119 4.26686C15.2629 4.90986 15.5159 5.52086 15.9349 6.01186C16.4073 6.56652 16.6667 7.27129 16.6667 7.99986C16.6667 8.72843 16.4073 9.4332 15.9349 9.98786C15.5162 10.4789 15.2632 11.0896 15.2119 11.7329C15.1538 12.4593 14.8389 13.1413 14.3236 13.6566C13.8083 14.1719 13.1263 14.4868 12.3999 14.5449C11.7566 14.5962 11.1459 14.8492 10.6549 15.2679C10.1002 15.7403 9.39543 15.9997 8.66685 15.9997C7.93828 15.9997 7.23351 15.7403 6.67885 15.2679C6.18776 14.8492 5.57711 14.5962 4.93385 14.5449C4.20742 14.4868 3.52542 14.1719 3.01012 13.6566C2.49481 13.1413 2.17991 12.4593 2.12185 11.7329C2.07049 11.0896 1.81748 10.4789 1.39885 9.98786C0.926443 9.4332 0.666992 8.72843 0.666992 7.99986C0.666992 7.27129 0.926443 6.56652 1.39885 6.01186C1.81748 5.52077 2.07049 4.91012 2.12185 4.26686C2.17991 3.54043 2.49481 2.85843 3.01012 2.34313C3.52542 1.82782 4.20742 1.51292 4.93385 1.45486ZM12.3739 6.70686C12.556 6.51826 12.6568 6.26566 12.6545 6.00346C12.6522 5.74126 12.5471 5.49045 12.3617 5.30504C12.1763 5.11963 11.9254 5.01446 11.6633 5.01219C11.4011 5.00991 11.1485 5.1107 10.9599 5.29286L7.66685 8.58586L6.37385 7.29286C6.18525 7.1107 5.93265 7.00991 5.67045 7.01219C5.40825 7.01446 5.15744 7.11963 4.97203 7.30504C4.78663 7.49045 4.68146 7.74126 4.67918 8.00346C4.6769 8.26566 4.77769 8.51826 4.95985 8.70686L6.95985 10.7069C7.14738 10.8943 7.40169 10.9996 7.66685 10.9996C7.93202 10.9996 8.18632 10.8943 8.37385 10.7069L12.3739 6.70686Z" fill="#0E73F6"/>
</svg>
