<svg width="20" height="20" viewBox="0 0 20 20" fill="none" xmlns="http://www.w3.org/2000/svg">
<g clip-path="url(#clip0_6604_48649)">
<path d="M9.16602 1.66699L11.666 4.16699M11.666 4.16699L9.16602 6.66699M11.666 4.16699L5.66602 4.16699C4.26588 4.16699 3.56582 4.16699 3.03104 4.43948C2.56063 4.67916 2.17818 5.06161 1.9385 5.53202C1.66602 6.0668 1.66602 6.76686 1.66602 8.16699L1.66602 12.917C1.66602 13.304 1.66602 13.4975 1.6874 13.66C1.8351 14.7818 2.71787 15.6646 3.8397 15.8123C4.00216 15.8337 4.19567 15.8337 4.58268 15.8337M8.33268 15.8337H14.3327C15.7328 15.8337 16.4329 15.8337 16.9677 15.5612C17.4381 15.3215 17.8205 14.939 18.0602 14.4686C18.3327 13.9339 18.3327 13.2338 18.3327 11.8337V7.08366C18.3327 6.69664 18.3327 6.50313 18.3113 6.34068C18.1636 5.21884 17.2808 4.33607 16.159 4.18838C15.9965 4.16699 15.803 4.16699 15.416 4.16699M8.33268 15.8337L10.8327 18.3337M8.33268 15.8337L10.8327 13.3337" stroke="black" stroke-width="1.5" stroke-linecap="round" stroke-linejoin="round"/>
</g>
<defs>
<clipPath id="clip0_6604_48649">
<rect width="20" height="20" fill="white"/>
</clipPath>
</defs>
</svg>
