<svg width="20" height="20" viewBox="0 0 20 20" fill="none" xmlns="http://www.w3.org/2000/svg">
<path d="M17.5 8.33333H2.5M17.5 10.4167V7.33333C17.5 5.9332 17.5 5.23314 17.2275 4.69836C16.9878 4.22795 16.6054 3.8455 16.135 3.60582C15.6002 3.33333 14.9001 3.33333 13.5 3.33333H6.5C5.09987 3.33333 4.3998 3.33333 3.86502 3.60582C3.39462 3.8455 3.01217 4.22795 2.77248 4.69836C2.5 5.23314 2.5 5.9332 2.5 7.33333V14.3333C2.5 15.7335 2.5 16.4335 2.77248 16.9683C3.01217 17.4387 3.39462 17.8212 3.86502 18.0609C4.3998 18.3333 5.09987 18.3333 6.5 18.3333H10M13.3333 1.66667V5M6.66667 1.66667V5" stroke="black" stroke-width="1.6" stroke-linecap="round" stroke-linejoin="round"/>
<path d="M15 14.2V16L16.2 16.6M18 16C18 17.6569 16.6569 19 15 19C13.3431 19 12 17.6569 12 16C12 14.3431 13.3431 13 15 13C16.6569 13 18 14.3431 18 16Z" stroke="black" stroke-width="1.1" stroke-linecap="round" stroke-linejoin="round"/>
</svg>
