<svg width="20" height="20" viewBox="0 0 20 20" fill="none" xmlns="http://www.w3.org/2000/svg">
<path d="M1.66669 5.83333L8.47079 10.5962C9.02176 10.9819 9.29725 11.1747 9.59691 11.2494C9.8616 11.3154 10.1384 11.3154 10.4031 11.2494C10.7028 11.1747 10.9783 10.9819 11.5293 10.5962L18.3334 5.83333M5.66669 16.6667H14.3334C15.7335 16.6667 16.4336 16.6667 16.9683 16.3942C17.4387 16.1545 17.8212 15.772 18.0609 15.3016C18.3334 14.7669 18.3334 14.0668 18.3334 12.6667V7.33333C18.3334 5.9332 18.3334 5.23314 18.0609 4.69836C17.8212 4.22795 17.4387 3.8455 16.9683 3.60582C16.4336 3.33333 15.7335 3.33333 14.3334 3.33333H5.66669C4.26656 3.33333 3.56649 3.33333 3.03171 3.60582C2.56131 3.8455 2.17885 4.22795 1.93917 4.69836C1.66669 5.23314 1.66669 5.9332 1.66669 7.33333V12.6667C1.66669 14.0668 1.66669 14.7669 1.93917 15.3016C2.17885 15.772 2.56131 16.1545 3.03171 16.3942C3.56649 16.6667 4.26656 16.6667 5.66669 16.6667Z" stroke="currentColor" stroke-width="1.6" stroke-linecap="round" stroke-linejoin="round"/>
</svg>
