<svg width="20" height="20" viewBox="0 0 20 20" fill="none" xmlns="http://www.w3.org/2000/svg">
<path d="M10.0002 11.666V7.08268C10.0002 6.39233 10.5598 5.83268 11.2502 5.83268C11.9405 5.83268 12.5002 6.39233 12.5002 7.08268V11.666C12.5002 13.0467 11.3809 14.166 10.0002 14.166C8.61945 14.166 7.50016 13.0467 7.50016 11.666V8.33268M7.3335 18.3327H12.6668C14.067 18.3327 14.767 18.3327 15.3018 18.0602C15.7722 17.8205 16.1547 17.4381 16.3943 16.9677C16.6668 16.4329 16.6668 15.7328 16.6668 14.3327V5.66602C16.6668 4.26588 16.6668 3.56582 16.3943 3.03104C16.1547 2.56063 15.7722 2.17818 15.3018 1.9385C14.767 1.66602 14.067 1.66602 12.6668 1.66602H7.3335C5.93336 1.66602 5.2333 1.66602 4.69852 1.9385C4.22811 2.17818 3.84566 2.56063 3.60598 3.03104C3.3335 3.56582 3.3335 4.26588 3.3335 5.66602V14.3327C3.3335 15.7328 3.3335 16.4329 3.60598 16.9677C3.84566 17.4381 4.22811 17.8205 4.69852 18.0602C5.2333 18.3327 5.93336 18.3327 7.3335 18.3327Z" stroke="#475467" stroke-width="1.67" stroke-linecap="round" stroke-linejoin="round"/>
</svg>
