<svg width="20" height="20" viewBox="0 0 20 20" fill="none" xmlns="http://www.w3.org/2000/svg">
<path d="M3.33334 5.66667C3.33334 4.26654 3.33334 3.56647 3.60583 3.0317C3.84551 2.56129 4.22796 2.17884 4.69837 1.93916C5.23315 1.66667 5.93321 1.66667 7.33334 1.66667H12.6667C14.0668 1.66667 14.7669 1.66667 15.3017 1.93916C15.7721 2.17884 16.1545 2.56129 16.3942 3.0317C16.6667 3.56647 16.6667 4.26654 16.6667 5.66667V14.3333C16.6667 15.7335 16.6667 16.4335 16.3942 16.9683C16.1545 17.4387 15.7721 17.8212 15.3017 18.0609C14.7669 18.3333 14.0668 18.3333 12.6667 18.3333H7.33334C5.93321 18.3333 5.23315 18.3333 4.69837 18.0609C4.22796 17.8212 3.84551 17.4387 3.60583 16.9683C3.33334 16.4335 3.33334 15.7335 3.33334 14.3333V5.66667Z" stroke="black" stroke-width="1.6" stroke-linecap="round" stroke-linejoin="round"/>
<path d="M10.5 11V7.25C10.5 6.55964 11.0596 6 11.75 6C12.4404 6 13 6.55964 13 7.25V11C13 12.3807 11.8807 13.5 10.5 13.5C9.11929 13.5 8 12.3807 8 11V7.66667" stroke="black" stroke-width="1.6" stroke-linecap="round" stroke-linejoin="round"/>
</svg>
