<svg width="20" height="20" viewBox="0 0 20 20" fill="none" xmlns="http://www.w3.org/2000/svg">
<path d="M5.11865 5.94369C5.05941 5.83203 5.09928 5.74544 5.23828 5.68392C5.37044 5.62468 5.5083 5.5415 5.65186 5.43441C5.79541 5.32731 5.91276 5.2168 6.00391 5.10287C6.10645 4.97526 6.20443 4.91146 6.29785 4.91146H6.84131C6.97803 4.91146 7.04639 4.97982 7.04639 5.11654V9.62826C7.04639 9.76497 6.97803 9.83333 6.84131 9.83333H6.29443C6.15771 9.83333 6.08936 9.76497 6.08936 9.62826V6.37777C6.08936 6.28662 6.09391 6.19548 6.10303 6.10433H6.08936C6.01872 6.1932 5.94124 6.26953 5.85693 6.33333C5.77262 6.39714 5.68717 6.44727 5.60059 6.48372C5.49349 6.5293 5.4126 6.49968 5.35791 6.39486L5.11865 5.94369Z" fill="black"/>
<path d="M12.2238 14.5C12.0529 14.5 11.9675 14.4259 11.9675 14.2778V14.1138C11.9675 13.9953 12.0221 13.8779 12.1315 13.7617L13.1535 12.6851C13.4611 12.3592 13.7425 12.0698 13.9977 11.8169C14.2529 11.5617 14.3805 11.3042 14.3805 11.0444C14.3805 10.7847 14.3156 10.5944 14.1857 10.4736C14.0581 10.3506 13.8952 10.2891 13.6969 10.2891C13.3825 10.2891 13.1637 10.362 13.0407 10.5078C12.9176 10.6536 12.8288 10.8097 12.7741 10.9761C12.7217 11.1379 12.626 11.196 12.487 11.1504L12.1418 11.0342C12.0301 10.9954 11.9982 10.8883 12.0461 10.7129C12.1349 10.387 12.3161 10.1079 12.5895 9.87549C12.863 9.64079 13.2686 9.52344 13.8063 9.52344C14.3669 9.52344 14.7736 9.66813 15.0265 9.95752C15.2795 10.2446 15.4059 10.5568 15.4059 10.894C15.4059 11.3361 15.2214 11.7246 14.8522 12.0596C14.4831 12.3923 14.1481 12.717 13.8473 13.0337L13.2663 13.6455V13.666C13.403 13.6569 13.5169 13.6523 13.6081 13.6523H15.2043C15.3752 13.6523 15.4606 13.7264 15.4606 13.8745V14.2778C15.4606 14.4259 15.3752 14.5 15.2043 14.5H12.2238Z" fill="black"/>
<rect x="1.8" y="1.8" width="16.4" height="16.4" rx="3.2" stroke="black" stroke-width="1.6"/>
<path d="M14 6L6 14" stroke="black" stroke-width="1.2" stroke-linecap="round" stroke-linejoin="round"/>
</svg>
