<svg width="20" height="20" viewBox="0 0 20 20" fill="none" xmlns="http://www.w3.org/2000/svg">
<path d="M15.8333 4.16667L4.16667 15.8333" stroke="black" stroke-width="2" stroke-linecap="round" stroke-linejoin="round"/>
<path d="M3.38379 4.27669C3.29915 4.11719 3.35612 3.99349 3.55469 3.9056C3.74349 3.82096 3.94043 3.70215 4.14551 3.54915C4.35059 3.39616 4.51823 3.23828 4.64844 3.07552C4.79492 2.89323 4.9349 2.80208 5.06836 2.80208H5.84473C6.04004 2.80208 6.1377 2.89974 6.1377 3.09505V9.54037C6.1377 9.73568 6.04004 9.83333 5.84473 9.83333H5.06348C4.86816 9.83333 4.77051 9.73568 4.77051 9.54037V4.89681C4.77051 4.7666 4.77702 4.63639 4.79004 4.50619H4.77051C4.6696 4.63314 4.55892 4.74219 4.43848 4.83333C4.31803 4.92448 4.19596 4.99609 4.07227 5.04818C3.91927 5.11328 3.80371 5.07096 3.72559 4.92122L3.38379 4.27669Z" fill="black"/>
<path d="M13.3034 16.5C13.1081 16.5 13.0104 16.4154 13.0104 16.2461V16.0586C13.0104 15.9232 13.0729 15.7891 13.1979 15.6562L14.3659 14.4258C14.7175 14.0534 15.0391 13.7227 15.3307 13.4336C15.6224 13.1419 15.7682 12.8477 15.7682 12.5508C15.7682 12.2539 15.694 12.0365 15.5456 11.8984C15.3997 11.7578 15.2135 11.6875 14.987 11.6875C14.6276 11.6875 14.3776 11.7708 14.237 11.9375C14.0964 12.1042 13.9948 12.2826 13.9323 12.4727C13.8724 12.6576 13.763 12.724 13.6042 12.6719L13.2096 12.5391C13.082 12.4948 13.0456 12.3724 13.1003 12.1719C13.2018 11.7995 13.4089 11.4805 13.7214 11.2148C14.0339 10.9466 14.4974 10.8125 15.112 10.8125C15.7526 10.8125 16.2175 10.9779 16.5065 11.3086C16.7956 11.6367 16.9401 11.9935 16.9401 12.3789C16.9401 12.8841 16.7292 13.3281 16.3073 13.7109C15.8854 14.0911 15.5026 14.4622 15.1589 14.8242L14.4948 15.5234V15.5469C14.651 15.5365 14.7813 15.5312 14.8854 15.5312H16.7096C16.905 15.5312 17.0026 15.6159 17.0026 15.7852V16.2461C17.0026 16.4154 16.905 16.5 16.7096 16.5H13.3034Z" fill="black"/>
</svg>
