<svg width="32" height="32" viewBox="0 0 32 32" fill="none" xmlns="http://www.w3.org/2000/svg">
<path d="M26.545 5.48712C26.5312 4.20493 26.1376 2.9127 25.0219 2.19435C23.936 1.49406 22.492 1.5081 21.6375 2.57359C21.5683 2.65987 21.4199 2.80635 21.4634 2.93277C21.5069 3.05918 21.776 3.03109 21.8887 3.08727C21.9772 3.13555 22.0496 3.20935 22.0968 3.29934C22.144 3.38934 22.1638 3.4915 22.1538 3.59293C22.1538 3.83572 22.1538 6.17538 22.136 9.39792L13.749 9.34776C13.6262 7.7706 13.7187 6.18379 14.024 4.63233C14.0913 4.29121 14.1684 3.95411 14.2554 3.617C14.3504 3.24779 14.6135 2.79431 14.5858 2.41306C14.5845 2.36086 14.5672 2.31036 14.5363 2.26859C14.4611 2.17429 14.3187 2.19034 14.202 2.22044C13.478 2.4152 12.8097 2.78099 12.2517 3.28793C11.8429 3.6708 11.4976 4.11797 11.229 4.61226C10.153 6.56866 10.0699 9.33772 10.0699 9.33772C10.0145 11.1276 9.94527 14.7554 11.8244 18.5218C11.8244 18.5218 13.1438 21.1624 15.0269 21.8125C15.3987 21.943 15.4996 21.8567 15.5332 21.8125C15.6796 21.6219 15.3651 21.2928 15.2721 21.1484C15.1018 20.8779 14.953 20.5941 14.8271 20.2996C14.5726 19.6885 14.3836 19.0514 14.2633 18.3994C13.8428 16.432 13.6438 14.4226 13.6699 12.4098H22.1379V19.9886C22.1234 20.2345 22.1775 20.4796 22.294 20.6957C22.4105 20.9118 22.5847 21.0903 22.7966 21.2106C23.0791 21.3397 23.3817 21.4178 23.6907 21.4413C24.2255 21.5266 24.7701 21.5266 25.3048 21.4413C25.6205 21.3913 25.9159 21.2523 26.1573 21.04C26.5312 20.6889 26.5371 20.2133 26.5371 19.7337C26.5371 15.9213 26.5707 12.1188 26.5668 8.31237C26.5642 7.37865 26.5569 6.4369 26.545 5.48712Z" fill="url(#paint0_linear_42_2287)"/>
<path d="M14.943 22.7682C11.527 21.7549 10.1957 18.0829 9.46385 14.8984C9.30561 14.2042 9.1533 13.5199 9.06824 12.8116C8.79527 10.6706 8.80714 8.31692 9.49154 6.25015C8.97132 6.37055 8.73395 6.82604 8.42933 7.19524C7.31767 8.54366 7.22866 10.1188 7.17525 11.6839C7.08245 14.0576 7.59406 16.4155 8.66077 18.5303C9.1017 19.3699 9.63955 20.1533 10.263 20.864C10.8865 21.564 11.595 22.1809 12.3716 22.7C11.1165 22.3895 9.98478 21.6979 9.12759 20.7175C8.77567 20.2638 8.45638 19.785 8.17219 19.2848C7.6302 18.3297 6.95371 17.1398 6.60755 15.5446C6.51063 15.0971 6.44535 14.6416 6.27128 14.6236C6.02205 14.5975 5.73721 15.5044 5.67787 15.6991C5.52182 16.1928 5.4398 16.7076 5.43457 17.2261C5.44842 18.43 6.33656 20.7717 8.46494 22.3609C8.46494 22.3609 10.3243 23.7494 13.505 23.8558C14.0262 23.8599 14.5373 23.7108 14.9767 23.4264C15.2576 23.2297 15.4435 22.9167 14.943 22.7682Z" fill="url(#paint1_linear_42_2287)"/>
<path d="M8.70625 26.7772V31.9118H7.51795V29.8067H5.18537V31.9118H3.99707V26.7772H5.18537V28.8017H7.51795V26.7772H8.70625Z" fill="#4F586F"/>
<path d="M12.2023 31.9999C11.4688 31.9999 10.8967 31.7969 10.4859 31.391C10.08 30.9852 9.87707 30.4057 9.87707 29.6526V26.7772H11.0654V29.6086C11.0654 30.5279 11.4468 30.9876 12.2096 30.9876C12.5813 30.9876 12.8649 30.8776 13.0605 30.6575C13.2561 30.4326 13.3539 30.0829 13.3539 29.6086V26.7772H14.5276V29.6526C14.5276 30.4057 14.3222 30.9852 13.9114 31.391C13.5055 31.7969 12.9358 31.9999 12.2023 31.9999Z" fill="#4F586F"/>
<path d="M20.3743 31.9118L20.367 28.8311L18.8559 31.369H18.3205L16.8168 28.8971V31.9118H15.7018V26.7772H16.6847L18.6065 29.968L20.499 26.7772H21.4746L21.4893 31.9118H20.3743Z" fill="#4F586F"/>
<path d="M25.1941 31.9999C24.6611 31.9999 24.1794 31.8849 23.7491 31.6551C23.3236 31.4253 22.9887 31.1099 22.7442 30.7089C22.5045 30.303 22.3847 29.8482 22.3847 29.3445C22.3847 28.8409 22.5045 28.3885 22.7442 27.9875C22.9887 27.5817 23.3236 27.2638 23.7491 27.034C24.1794 26.8041 24.6611 26.6892 25.1941 26.6892C25.7271 26.6892 26.2064 26.8041 26.6318 27.034C27.0572 27.2638 27.3922 27.5817 27.6367 27.9875C27.8812 28.3885 28.0035 28.8409 28.0035 29.3445C28.0035 29.8482 27.8812 30.303 27.6367 30.7089C27.3922 31.1099 27.0572 31.4253 26.6318 31.6551C26.2064 31.8849 25.7271 31.9999 25.1941 31.9999ZM25.1941 30.9876C25.4973 30.9876 25.7711 30.9192 26.0156 30.7822C26.2601 30.6404 26.4509 30.4448 26.5878 30.1954C26.7296 29.946 26.8005 29.6624 26.8005 29.3445C26.8005 29.0267 26.7296 28.7431 26.5878 28.4937C26.4509 28.2443 26.2601 28.0511 26.0156 27.9142C25.7711 27.7724 25.4973 27.7015 25.1941 27.7015C24.8909 27.7015 24.6171 27.7724 24.3726 27.9142C24.1281 28.0511 23.9349 28.2443 23.7931 28.4937C23.6562 28.7431 23.5877 29.0267 23.5877 29.3445C23.5877 29.6624 23.6562 29.946 23.7931 30.1954C23.9349 30.4448 24.1281 30.6404 24.3726 30.7822C24.6171 30.9192 24.8909 30.9876 25.1941 30.9876Z" fill="#4F586F"/>
<defs>
<linearGradient id="paint0_linear_42_2287" x1="3153.58" y1="5073.18" x2="1867.1" y2="4275.95" gradientUnits="userSpaceOnUse">
<stop offset="0.33" stop-color="#9C8837"/>
<stop offset="0.56" stop-color="#F7E59E"/>
<stop offset="0.6" stop-color="#F0DE96"/>
<stop offset="0.67" stop-color="#DECB80"/>
<stop offset="0.75" stop-color="#C1AD5D"/>
<stop offset="0.79" stop-color="#B39F4D"/>
</linearGradient>
<linearGradient id="paint1_linear_42_2287" x1="1623.05" y1="5028.98" x2="724.459" y2="4649.69" gradientUnits="userSpaceOnUse">
<stop offset="0.33" stop-color="#9C8837"/>
<stop offset="0.56" stop-color="#F7E59E"/>
<stop offset="0.6" stop-color="#F0DE96"/>
<stop offset="0.67" stop-color="#DECB80"/>
<stop offset="0.75" stop-color="#C1AD5D"/>
<stop offset="0.79" stop-color="#B39F4D"/>
</linearGradient>
</defs>
</svg>
