<svg width="20" height="20" viewBox="0 0 20 20" fill="none" xmlns="http://www.w3.org/2000/svg">
<path fill-rule="evenodd" clip-rule="evenodd" d="M16.6667 5H3.33333C2.41286 5 1.66667 5.74619 1.66667 6.66667V13.3333C1.66667 14.2538 2.41286 15 3.33333 15H16.6667C17.5871 15 18.3333 14.2538 18.3333 13.3333V6.66667C18.3333 5.74619 17.5871 5 16.6667 5ZM3.33333 3.33333C1.49238 3.33333 0 4.82572 0 6.66667V13.3333C0 15.1743 1.49238 16.6667 3.33333 16.6667H16.6667C18.5076 16.6667 20 15.1743 20 13.3333V6.66667C20 4.82572 18.5076 3.33333 16.6667 3.33333H3.33333Z" fill="#12131A"/>
<path fill-rule="evenodd" clip-rule="evenodd" d="M11.5 7.5C11.5 7.03976 11.8731 6.66667 12.3333 6.66667H14.4167C15.107 6.66667 15.6667 7.22631 15.6667 7.91667V9.58333C15.6667 10.2737 15.107 10.8333 14.4167 10.8333H13.1667V11.6667H14.8333C15.2936 11.6667 15.6667 12.0398 15.6667 12.5C15.6667 12.9602 15.2936 13.3333 14.8333 13.3333H12.75C12.0596 13.3333 11.5 12.7737 11.5 12.0833V10.4167C11.5 9.72631 12.0596 9.16667 12.75 9.16667H14V8.33333H12.3333C11.8731 8.33333 11.5 7.96024 11.5 7.5Z" fill="#12131A"/>
<path d="M6.83332 6.66667C7.29356 6.66667 7.66666 7.03976 7.66666 7.5V11.6667C8.12689 11.6667 8.49999 12.0398 8.49999 12.5C8.49999 12.9602 8.12689 13.3333 7.66666 13.3333H5.99999C5.53975 13.3333 5.16666 12.9602 5.16666 12.5C5.16666 12.0398 5.53975 11.6667 5.99999 11.6667V8.33333C5.53975 8.33333 5.16666 7.96024 5.16666 7.5C5.16666 7.03976 5.53975 6.66667 5.99999 6.66667H6.83332Z" fill="#12131A"/>
</svg>
