<svg width="20" height="20" viewBox="0 0 20 20" fill="none" xmlns="http://www.w3.org/2000/svg">
<path d="M8.59205 10.7047C8.89438 11.1093 9.28009 11.444 9.72302 11.6863C10.166 11.9285 10.6558 12.0726 11.1592 12.1086C11.6626 12.1447 12.1679 12.072 12.6408 11.8954C13.1137 11.7189 13.5432 11.4425 13.9 11.0852L16.0119 8.97116C16.6531 8.30664 17.0079 7.41662 16.9999 6.49279C16.9918 5.56897 16.6217 4.68525 15.9691 4.03198C15.3164 3.37871 14.4336 3.00816 13.5107 3.00013C12.5878 2.99211 11.6987 3.34725 11.0348 3.98906L9.82401 5.19407M11.4079 9.29532C11.1056 8.89074 10.7199 8.55598 10.277 8.31374C9.83404 8.0715 9.34424 7.92745 8.8408 7.89136C8.33736 7.85526 7.83205 7.92798 7.35915 8.10456C6.88625 8.28114 6.45682 8.55747 6.09999 8.91479L3.98807 11.0288C3.3469 11.6934 2.99211 12.5834 3.00013 13.5072C3.00815 14.431 3.37833 15.3147 4.03095 15.968C4.68356 16.6213 5.56638 16.9918 6.48928 16.9999C7.41218 17.0079 8.3013 16.6528 8.96516 16.0109L10.169 14.8059" stroke="currentColor" stroke-width="1.6" stroke-linecap="round" stroke-linejoin="round"/>
<path d="M16.5 19V14M14 16.5H19" stroke="currentColor" stroke-width="1.4" stroke-linecap="round" stroke-linejoin="round"/>
</svg>
