<svg width="20" height="20" viewBox="0 0 20 20" fill="none" xmlns="http://www.w3.org/2000/svg">
<g clip-path="url(#clip0_489_17274)">
<path d="M8.33301 10.834C8.69089 11.3124 9.14748 11.7083 9.6718 11.9947C10.1961 12.2812 10.7759 12.4516 11.3719 12.4942C11.9678 12.5369 12.566 12.4509 13.1258 12.2421C13.6856 12.0333 14.1939 11.7065 14.6163 11.284L17.1163 8.78396C17.8753 7.99811 18.2953 6.9456 18.2858 5.85312C18.2763 4.76063 17.8381 3.71558 17.0656 2.94304C16.2931 2.17051 15.248 1.73231 14.1555 1.72281C13.063 1.71332 12.0105 2.1333 11.2247 2.89229L9.79134 4.31729M11.6663 9.16729C11.3085 8.68885 10.8519 8.29297 10.3276 8.00651C9.80322 7.72004 9.22342 7.54969 8.62747 7.50701C8.03152 7.46433 7.43336 7.55032 6.87356 7.75914C6.31376 7.96796 5.80542 8.29473 5.38301 8.71729L2.88301 11.2173C2.12402 12.0031 1.70404 13.0556 1.71354 14.1481C1.72303 15.2406 2.16123 16.2857 2.93377 17.0582C3.7063 17.8307 4.75135 18.2689 5.84384 18.2784C6.93633 18.2879 7.98884 17.8679 8.77468 17.109L10.1997 15.684" stroke="#475467" stroke-width="1.67" stroke-linecap="round" stroke-linejoin="round"/>
</g>
<defs>
<clipPath id="clip0_489_17274">
<rect width="20" height="20" fill="white"/>
</clipPath>
</defs>
</svg>
