<svg width="20" height="20" viewBox="0 0 20 20" fill="none" xmlns="http://www.w3.org/2000/svg">
<g clip-path="url(#clip0_113_10340)">
<path d="M7.08334 12.2222C7.08334 13.2961 7.9539 14.1667 9.02778 14.1667H10.8333C11.9839 14.1667 12.9167 13.2339 12.9167 12.0833C12.9167 10.9327 11.9839 10 10.8333 10H9.16667C8.01608 10 7.08334 9.06726 7.08334 7.91667C7.08334 6.76607 8.01608 5.83333 9.16667 5.83333H10.9722C12.0461 5.83333 12.9167 6.70389 12.9167 7.77778M10 4.58333V5.83333M10 14.1667V15.4167M18.3333 10C18.3333 14.6024 14.6024 18.3333 10 18.3333C5.39763 18.3333 1.66667 14.6024 1.66667 10C1.66667 5.39763 5.39763 1.66667 10 1.66667C14.6024 1.66667 18.3333 5.39763 18.3333 10Z" stroke="black" stroke-width="1.6" stroke-linecap="round" stroke-linejoin="round"/>
</g>
<defs>
<clipPath id="clip0_113_10340">
<rect width="20" height="20" fill="white"/>
</clipPath>
</defs>
</svg>
