<svg width="20" height="20" viewBox="0 0 20 20" fill="none" xmlns="http://www.w3.org/2000/svg">
<path d="M7.2373 7.2207C7.11882 6.9974 7.19857 6.82422 7.47656 6.70117C7.74089 6.58268 8.0166 6.41634 8.30371 6.20215C8.59082 5.98796 8.82552 5.76693 9.00781 5.53906C9.21289 5.28385 9.40885 5.15625 9.5957 5.15625H10.6826C10.9561 5.15625 11.0928 5.29297 11.0928 5.56641V14.5898C11.0928 14.8633 10.9561 15 10.6826 15H9.58887C9.31543 15 9.17871 14.8633 9.17871 14.5898V8.08887C9.17871 7.90658 9.18783 7.72428 9.20605 7.54199H9.17871C9.03743 7.71973 8.88249 7.8724 8.71387 8C8.54525 8.1276 8.37435 8.22786 8.20117 8.30078C7.98698 8.39193 7.8252 8.33268 7.71582 8.12305L7.2373 7.2207Z" fill="currentColor"/>
<rect x="1.8" y="1.8" width="16.4" height="16.4" rx="3.2" stroke="currentColor" stroke-width="1.6"/>
</svg>
