<svg width="20" height="20" viewBox="0 0 20 20" fill="none" xmlns="http://www.w3.org/2000/svg">
<g clip-path="url(#clip0_115_10436)">
<path d="M1.66669 10C1.66669 14.6024 5.39765 18.3333 10 18.3333C11.3807 18.3333 12.5 17.214 12.5 15.8333V15.4167C12.5 15.0297 12.5 14.8361 12.5214 14.6737C12.6691 13.5519 13.5519 12.6691 14.6737 12.5214C14.8362 12.5 15.0297 12.5 15.4167 12.5H15.8334C17.2141 12.5 18.3334 11.3807 18.3334 10C18.3334 5.39763 14.6024 1.66667 10 1.66667C5.39765 1.66667 1.66669 5.39763 1.66669 10Z" stroke="black" stroke-width="1.6" stroke-linecap="round" stroke-linejoin="round"/>
<path d="M5.83335 10.8333C6.29359 10.8333 6.66669 10.4602 6.66669 10C6.66669 9.53976 6.29359 9.16667 5.83335 9.16667C5.37312 9.16667 5.00002 9.53976 5.00002 10C5.00002 10.4602 5.37312 10.8333 5.83335 10.8333Z" stroke="black" stroke-width="1.6" stroke-linecap="round" stroke-linejoin="round"/>
<path d="M13.3334 7.5C13.7936 7.5 14.1667 7.1269 14.1667 6.66667C14.1667 6.20643 13.7936 5.83333 13.3334 5.83333C12.8731 5.83333 12.5 6.20643 12.5 6.66667C12.5 7.1269 12.8731 7.5 13.3334 7.5Z" stroke="black" stroke-width="1.6" stroke-linecap="round" stroke-linejoin="round"/>
<path d="M8.33335 6.66667C8.79359 6.66667 9.16669 6.29357 9.16669 5.83333C9.16669 5.3731 8.79359 5 8.33335 5C7.87312 5 7.50002 5.3731 7.50002 5.83333C7.50002 6.29357 7.87312 6.66667 8.33335 6.66667Z" stroke="black" stroke-width="1.6" stroke-linecap="round" stroke-linejoin="round"/>
</g>
<defs>
<clipPath id="clip0_115_10436">
<rect width="20" height="20" fill="white"/>
</clipPath>
</defs>
</svg>
