<svg width="20" height="20" viewBox="0 0 20 20" fill="none" xmlns="http://www.w3.org/2000/svg">
<path d="M18.3334 9.16667V6.83333C18.3334 5.89991 18.3334 5.4332 18.1517 5.07668C17.9919 4.76308 17.7369 4.50811 17.4233 4.34832C17.0668 4.16667 16.6001 4.16667 15.6667 4.16667H4.33335C3.39993 4.16667 2.93322 4.16667 2.5767 4.34832C2.2631 4.50811 2.00813 4.76308 1.84834 5.07668C1.66669 5.4332 1.66669 5.89991 1.66669 6.83333V9.83333C1.66669 10.7668 1.66669 11.2335 1.84834 11.59C2.00813 11.9036 2.2631 12.1586 2.5767 12.3183C2.93322 12.5 3.39993 12.5 4.33335 12.5H9.16669M10 8.33333H10.0042M14.1667 8.33333H14.1709M5.83335 8.33333H5.83752M16.0417 14.1667V12.7083C16.0417 11.9029 15.3888 11.25 14.5834 11.25C13.7779 11.25 13.125 11.9029 13.125 12.7083V14.1667M10.2084 8.33333C10.2084 8.44839 10.1151 8.54167 10 8.54167C9.88496 8.54167 9.79169 8.44839 9.79169 8.33333C9.79169 8.21827 9.88496 8.125 10 8.125C10.1151 8.125 10.2084 8.21827 10.2084 8.33333ZM14.375 8.33333C14.375 8.44839 14.2817 8.54167 14.1667 8.54167C14.0516 8.54167 13.9584 8.44839 13.9584 8.33333C13.9584 8.21827 14.0516 8.125 14.1667 8.125C14.2817 8.125 14.375 8.21827 14.375 8.33333ZM6.04169 8.33333C6.04169 8.44839 5.94841 8.54167 5.83335 8.54167C5.71829 8.54167 5.62502 8.44839 5.62502 8.33333C5.62502 8.21827 5.71829 8.125 5.83335 8.125C5.94841 8.125 6.04169 8.21827 6.04169 8.33333ZM13 17.5H16.1667C16.6334 17.5 16.8668 17.5 17.045 17.4092C17.2018 17.3293 17.3293 17.2018 17.4092 17.045C17.5 16.8667 17.5 16.6334 17.5 16.1667V15.5C17.5 15.0333 17.5 14.7999 17.4092 14.6217C17.3293 14.4649 17.2018 14.3374 17.045 14.2575C16.8668 14.1667 16.6334 14.1667 16.1667 14.1667H13C12.5333 14.1667 12.3 14.1667 12.1217 14.2575C11.9649 14.3374 11.8374 14.4649 11.7575 14.6217C11.6667 14.7999 11.6667 15.0333 11.6667 15.5V16.1667C11.6667 16.6334 11.6667 16.8667 11.7575 17.045C11.8374 17.2018 11.9649 17.3293 12.1217 17.4092C12.3 17.5 12.5333 17.5 13 17.5Z" stroke="currentColor" stroke-width="1.6" stroke-linecap="round" stroke-linejoin="round"/>
</svg>
