<svg width="20" height="20" viewBox="0 0 20 20" fill="none" xmlns="http://www.w3.org/2000/svg">
<path d="M17.5 4.16667L8.33333 4.16667M17.5 15.8333L8.33333 15.8333M17.5 10L8.33333 10M5 4.16667C5 4.85702 4.44036 5.41667 3.75 5.41667C3.05964 5.41667 2.5 4.85702 2.5 4.16667C2.5 3.47631 3.05964 2.91667 3.75 2.91667C4.44036 2.91667 5 3.47631 5 4.16667ZM5 15.8333C5 16.5237 4.44036 17.0833 3.75 17.0833C3.05964 17.0833 2.5 16.5237 2.5 15.8333C2.5 15.143 3.05964 14.5833 3.75 14.5833C4.44036 14.5833 5 15.143 5 15.8333ZM5 10C5 10.6904 4.44036 11.25 3.75 11.25C3.05964 11.25 2.5 10.6904 2.5 10C2.5 9.30964 3.05964 8.75 3.75 8.75C4.44036 8.75 5 9.30964 5 10Z" stroke="currentColor" stroke-width="1.6" stroke-linecap="round" stroke-linejoin="round"/>
</svg>
