<svg width="20" height="20" viewBox="0 0 20 20" fill="none" xmlns="http://www.w3.org/2000/svg">
<path d="M18.3333 7.44281C18.3333 6.93796 18.3333 6.68554 18.2335 6.56865C18.1469 6.46723 18.0169 6.41341 17.884 6.42387C17.7307 6.43593 17.5522 6.61442 17.1953 6.9714L14.1667 10L17.1953 13.0286C17.5522 13.3856 17.7307 13.5641 17.884 13.5761C18.0169 13.5866 18.1469 13.5328 18.2335 13.4313C18.3333 13.3145 18.3333 13.062 18.3333 12.5572V7.44281Z" stroke="black" stroke-width="1.6" stroke-linecap="round" stroke-linejoin="round"/>
<path d="M1.66666 8.16667C1.66666 6.76654 1.66666 6.06647 1.93914 5.53169C2.17882 5.06129 2.56128 4.67883 3.03168 4.43915C3.56646 4.16667 4.26653 4.16667 5.66666 4.16667H10.1667C11.5668 4.16667 12.2669 4.16667 12.8016 4.43915C13.272 4.67883 13.6545 5.06129 13.8942 5.53169C14.1667 6.06647 14.1667 6.76654 14.1667 8.16667V11.8333C14.1667 13.2335 14.1667 13.9335 13.8942 14.4683C13.6545 14.9387 13.272 15.3212 12.8016 15.5608C12.2669 15.8333 11.5668 15.8333 10.1667 15.8333H5.66666C4.26653 15.8333 3.56646 15.8333 3.03168 15.5608C2.56128 15.3212 2.17882 14.9387 1.93914 14.4683C1.66666 13.9335 1.66666 13.2335 1.66666 11.8333V8.16667Z" stroke="black" stroke-width="1.6" stroke-linecap="round" stroke-linejoin="round"/>
</svg>
