<svg width="16" height="16" viewBox="0 0 16 16" fill="none" xmlns="http://www.w3.org/2000/svg">
<g clip-path="url(#clip0_164_594)">
<path d="M14.6666 7.39065V8.00398C14.6658 9.44159 14.2003 10.8404 13.3395 11.9919C12.4787 13.1433 11.2688 13.9856 9.89016 14.3932C8.51154 14.8009 7.03809 14.7519 5.68957 14.2537C4.34104 13.7555 3.18969 12.8347 2.40723 11.6287C1.62476 10.4227 1.25311 8.99602 1.3477 7.56152C1.44229 6.12702 1.99806 4.76153 2.93211 3.66869C3.86615 2.57586 5.12844 1.81423 6.53071 1.49741C7.93298 1.18059 9.4001 1.32554 10.7133 1.91065M14.6666 2.66683L7.99992 9.34016L5.99992 7.34016" stroke="#101828" stroke-width="1.2" stroke-linecap="round" stroke-linejoin="round"/>
</g>
<defs>
<clipPath id="clip0_164_594">
<rect width="16" height="16" fill="white"/>
</clipPath>
</defs>
</svg>
