<svg width="16" height="16" viewBox="0 0 16 16" fill="none" xmlns="http://www.w3.org/2000/svg">
<path d="M13.3334 8.3335V4.5335C13.3334 3.41339 13.3334 2.85334 13.1154 2.42552C12.9237 2.04919 12.6177 1.74323 12.2414 1.55148C11.8136 1.3335 11.2535 1.3335 10.1334 1.3335H5.86675C4.74664 1.3335 4.18659 1.3335 3.75877 1.55148C3.38244 1.74323 3.07648 2.04919 2.88473 2.42552C2.66675 2.85334 2.66675 3.41339 2.66675 4.5335V11.4668C2.66675 12.5869 2.66675 13.147 2.88473 13.5748C3.07648 13.9511 3.38244 14.2571 3.75877 14.4488C4.18659 14.6668 4.74664 14.6668 5.86675 14.6668H8.00008M9.33341 7.3335H5.33341M6.66675 10.0002H5.33341M10.6667 4.66683H5.33341M9.66675 12.6668L11.0001 14.0002L14.0001 11.0002" stroke="#101828" stroke-width="1.2" stroke-linecap="round" stroke-linejoin="round"/>
</svg>
