<svg width="16" height="16" viewBox="0 0 16 16" fill="none" xmlns="http://www.w3.org/2000/svg">
<path d="M2 5.3335L10 5.3335M10 5.3335C10 6.43807 10.8954 7.3335 12 7.3335C13.1046 7.3335 14 6.43807 14 5.3335C14 4.22893 13.1046 3.3335 12 3.3335C10.8954 3.3335 10 4.22893 10 5.3335ZM6 10.6668L14 10.6668M6 10.6668C6 11.7714 5.10457 12.6668 4 12.6668C2.89543 12.6668 2 11.7714 2 10.6668C2 9.56226 2.89543 8.66683 4 8.66683C5.10457 8.66683 6 9.56226 6 10.6668Z" stroke="#101828" stroke-width="1.2" stroke-linecap="round" stroke-linejoin="round"/>
</svg>
