<svg width="32" height="32" viewBox="0 0 32 32" fill="none" xmlns="http://www.w3.org/2000/svg">
<g clipPath="url(#clip0)">
<path d="M25.4111 9.73505H13.3558C13.0309 9.73505 12.7676 9.47156 12.7676 9.14682C12.7676 8.82209 13.0309 8.55859 13.3558 8.55859H25.4111C25.736 8.55859 25.9993 8.82209 25.9993 9.14682C25.9993 9.47156 25.736 9.73505 25.4111 9.73505Z" fill="black" fill-opacity="0.6"/>
<path d="M25.4111 16.5886H13.3558C13.0309 16.5886 12.7676 16.3251 12.7676 16.0003C12.7676 15.6756 13.0309 15.4121 13.3558 15.4121H25.4111C25.736 15.4121 25.9993 15.6756 25.9993 16.0003C25.9993 16.3251 25.736 16.5886 25.4111 16.5886Z" fill="black" fill-opacity="0.6"/>
<path d="M25.4111 23.4421H13.3558C13.0309 23.4421 12.7676 23.1786 12.7676 22.8539C12.7676 22.5291 13.0309 22.2656 13.3558 22.2656H25.4111C25.736 22.2656 25.9993 22.5291 25.9993 22.8539C25.9993 23.1786 25.736 23.4421 25.4111 23.4421Z" fill="black" fill-opacity="0.6"/>
<path d="M10.0631 7H6.43689C6.1966 7 6 7.1966 6 7.43689V11.0631C6 11.3034 6.1966 11.5 6.43689 11.5H10.0631C10.3034 11.5 10.5 11.3034 10.5 11.0631V7.43689C10.5 7.1966 10.3034 7 10.0631 7ZM9.6699 10.6699H6.87379V7.87379H9.6699V10.6699Z" fill="black" fill-opacity="0.6"/>
<path d="M10.0631 13.5H6.43689C6.1966 13.5 6 13.6966 6 13.9369V17.5631C6 17.8034 6.1966 18 6.43689 18H10.0631C10.3034 18 10.5 17.8034 10.5 17.5631V13.9369C10.5 13.6966 10.3034 13.5 10.0631 13.5ZM9.6699 17.1699H6.87379V14.3738H9.6699V17.1699Z" fill="black" fill-opacity="0.6"/>
<path d="M10.0631 20.5H6.43689C6.1966 20.5 6 20.6966 6 20.9369V24.5631C6 24.8034 6.1966 25 6.43689 25H10.0631C10.3034 25 10.5 24.8034 10.5 24.5631V20.9369C10.5 20.6966 10.3034 20.5 10.0631 20.5ZM9.6699 24.1699H6.87379V21.3738H9.6699V24.1699Z" fill="black" fill-opacity="0.6"/>
</g>
<defs>
<clipPath id="clip0">
<rect width="20" height="20" fill="white" transform="translate(6 6)"/>
</clipPath>
</defs>
</svg>
