<svg width="20" height="11" viewBox="0 0 20 11" fill="none" xmlns="http://www.w3.org/2000/svg">
<path d="M3.67773 10H2.49707V2.17334L0.129395 3.04297V1.97656L3.49365 0.713379H3.67773V10ZM13.1738 10H7.11816V9.15576L10.3174 5.60107C10.7913 5.06364 11.1172 4.62777 11.2949 4.29346C11.4769 3.95492 11.5679 3.60579 11.5679 3.24609C11.5679 2.76367 11.4219 2.368 11.1299 2.05908C10.8379 1.75016 10.4486 1.5957 9.96191 1.5957C9.37793 1.5957 8.92301 1.76286 8.59717 2.09717C8.27555 2.42725 8.11475 2.88851 8.11475 3.48096H6.94043C6.94043 2.63037 7.21338 1.94271 7.75928 1.41797C8.30941 0.893229 9.04362 0.630859 9.96191 0.630859C10.821 0.630859 11.5002 0.857259 11.9995 1.31006C12.4989 1.75863 12.7485 2.35742 12.7485 3.10645C12.7485 4.01628 12.1688 5.09961 11.0093 6.35645L8.53369 9.0415H13.1738V10ZM16.1255 4.80762H17.0078C17.5622 4.79915 17.998 4.65316 18.3154 4.36963C18.6328 4.0861 18.7915 3.70312 18.7915 3.2207C18.7915 2.13737 18.252 1.5957 17.1729 1.5957C16.665 1.5957 16.2588 1.7417 15.9541 2.03369C15.6536 2.32145 15.5034 2.70443 15.5034 3.18262H14.3291C14.3291 2.45052 14.5957 1.84326 15.1289 1.36084C15.6663 0.874186 16.3477 0.630859 17.1729 0.630859C18.0446 0.630859 18.728 0.861491 19.2231 1.32275C19.7183 1.78402 19.9658 2.42513 19.9658 3.24609C19.9658 3.64811 19.8346 4.03743 19.5723 4.41406C19.3141 4.79069 18.9608 5.0721 18.5122 5.2583C19.02 5.41911 19.4115 5.68571 19.6865 6.05811C19.9658 6.4305 20.1055 6.88542 20.1055 7.42285C20.1055 8.25228 19.8346 8.91032 19.293 9.39697C18.7513 9.88363 18.0467 10.127 17.1792 10.127C16.3117 10.127 15.605 9.89209 15.0591 9.42236C14.5174 8.95264 14.2466 8.33268 14.2466 7.5625H15.4272C15.4272 8.04915 15.5859 8.43848 15.9033 8.73047C16.2207 9.02246 16.646 9.16846 17.1792 9.16846C17.7463 9.16846 18.18 9.02035 18.4805 8.72412C18.7809 8.4279 18.9312 8.0026 18.9312 7.44824C18.9312 6.91081 18.7661 6.49821 18.436 6.21045C18.106 5.92269 17.6299 5.77458 17.0078 5.76611H16.1255V4.80762Z" fill="black" fill-opacity="0.6"/>
</svg>
