<svg width="32" height="32" viewBox="0 0 32 32" fill="none" xmlns="http://www.w3.org/2000/svg">
<path d="M16.5177 25.9199H14.9721C13.8836 25.9199 12.999 26.8045 12.999 27.893V30.0272C12.999 31.1157 13.8836 32.0003 14.9721 32.0003H16.5177C17.6062 32.0003 18.4907 31.1157 18.4907 30.0272V27.893C18.4907 26.8013 17.6062 25.9199 16.5177 25.9199Z" fill="black" fill-opacity="0.6"/>
<path d="M5.62042 9.39842L8.47151 9.75357C9.37584 9.86538 10.2341 9.3458 10.5597 8.49409C10.9707 7.41876 11.5429 6.57034 12.2763 5.95211C13.3154 5.07738 14.6078 4.63673 16.1534 4.63673C17.7548 4.63673 19.0308 5.05765 19.9778 5.89621C20.9249 6.73805 21.3952 7.74432 21.3952 8.92488C21.3952 9.7733 21.1288 10.5494 20.5961 11.2531C20.2508 11.7003 19.1886 12.6408 17.4161 14.0779C15.6404 15.515 14.4598 16.8106 13.8679 17.9615C13.2628 19.1388 13.0524 20.4443 12.9998 21.7532C12.9537 22.8745 13.8482 23.8084 14.9728 23.8084H16.5842C17.6102 23.8084 18.4586 23.0225 18.5507 22.0031C18.6164 21.2698 18.7381 20.714 18.9223 20.3359C19.2314 19.688 20.0305 18.833 21.313 17.7676C23.7957 15.7123 25.4137 14.0878 26.1733 12.8908C26.9297 11.6971 27.3111 10.431 27.3111 9.09259C27.3111 6.67557 26.2818 4.55452 24.22 2.73271C22.1614 0.910903 19.3859 0 15.9002 0C12.5854 0 9.91189 0.897749 7.87304 2.69654C6.13674 4.22896 5.08114 6.04419 4.70954 8.13894C4.59442 8.75059 5.01205 9.32278 5.62042 9.39842Z" fill="black" fill-opacity="0.6"/>
</svg>
