<svg width="32" height="32" viewBox="0 0 32 32" fill="none" xmlns="http://www.w3.org/2000/svg">
<g clipPaths="url(#clip0)">
<path d="M8.30175 11.4474C7.03264 11.4474 6 10.4149 6 9.14555C6 7.87622 7.03264 6.84375 8.30175 6.84375C9.57087 6.84375 10.6034 7.87622 10.6034 9.14555C10.6034 10.4149 9.57091 11.4474 8.30175 11.4474ZM8.30175 8.02025C7.6812 8.02025 7.17646 8.52517 7.17646 9.14555C7.17646 9.76593 7.6812 10.2708 8.30175 10.2708C8.92214 10.2708 9.42692 9.76593 9.42692 9.14555C9.42692 8.52517 8.92218 8.02025 8.30175 8.02025Z" fill="black" fill-opacity="0.6"/>
<path d="M25.4121 9.73505H13.3568C13.0319 9.73505 12.7686 9.47156 12.7686 9.14682C12.7686 8.82209 13.0319 8.55859 13.3568 8.55859H25.4121C25.737 8.55859 26.0003 8.82209 26.0003 9.14682C26.0003 9.47156 25.737 9.73505 25.4121 9.73505Z" fill="black" fill-opacity="0.6"/>
<path d="M8.30175 18.3008C7.03264 18.3008 6 17.2683 6 15.999C6 14.7297 7.03264 13.6973 8.30175 13.6973C9.57087 13.6973 10.6034 14.7297 10.6034 15.999C10.6034 17.2683 9.57091 18.3008 8.30175 18.3008ZM8.30175 14.8737C7.6812 14.8737 7.17646 15.3786 7.17646 15.999C7.17646 16.6194 7.6812 17.1243 8.30175 17.1243C8.92214 17.1243 9.42692 16.6194 9.42692 15.999C9.42692 15.3786 8.92218 14.8737 8.30175 14.8737Z" fill="black" fill-opacity="0.6"/>
<path d="M25.4121 16.5866H13.3568C13.0319 16.5866 12.7686 16.3231 12.7686 15.9984C12.7686 15.6737 13.0319 15.4102 13.3568 15.4102H25.4121C25.737 15.4102 26.0003 15.6737 26.0003 15.9984C26.0003 16.3231 25.737 16.5866 25.4121 16.5866Z" fill="black" fill-opacity="0.6"/>
<path d="M8.30175 25.1543C7.03264 25.1543 6 24.1218 6 22.8525C6 21.5833 7.03264 20.5508 8.30175 20.5508C9.57087 20.5508 10.6034 21.5833 10.6034 22.8525C10.6034 24.1218 9.57091 25.1543 8.30175 25.1543ZM8.30175 21.7272C7.6812 21.7272 7.17646 22.2321 7.17646 22.8525C7.17646 23.4729 7.6812 23.9778 8.30175 23.9778C8.92214 23.9778 9.42692 23.4729 9.42692 22.8525C9.42692 22.2321 8.92218 21.7272 8.30175 21.7272Z" fill="black" fill-opacity="0.6"/>
<path d="M25.4121 23.4421H13.3568C13.0319 23.4421 12.7686 23.1786 12.7686 22.8539C12.7686 22.5291 13.0319 22.2656 13.3568 22.2656H25.4121C25.737 22.2656 26.0003 22.5291 26.0003 22.8539C26.0003 23.1786 25.737 23.4421 25.4121 23.4421Z" fill="black" fill-opacity="0.6"/>
</g>
<defs>
<clipPath id="clip0">
<rect width="20" height="20" fill="white" transform="translate(6 6)"/>
</clipPath>
</defs>
</svg>
