<svg width="20" height="20" viewBox="0 0 20 20" fill="none" xmlns="http://www.w3.org/2000/svg">
<path d="M19.4309 0.248137H0.569061C0.259669 0.242612 0.00552486 0.491231 0 0.795099V4.10449C0 4.40836 0.248619 4.65698 0.552486 4.65698C0.856354 4.65698 1.10497 4.40836 1.10497 4.10449V1.35311H9.44751V18.6459H5.75138C5.44751 18.6459 5.19889 18.8945 5.19889 19.1984C5.19889 19.5023 5.44751 19.7509 5.75138 19.7509H14.2431C14.547 19.7509 14.7956 19.5023 14.7956 19.1984C14.7956 18.8945 14.547 18.6459 14.2431 18.6459H10.5525V1.35311H18.895V4.11002C18.895 4.41388 19.1436 4.6625 19.4475 4.6625C19.7514 4.6625 20 4.41388 20 4.11002V0.800623C19.989 0.491231 19.7348 0.242612 19.4309 0.248137Z" fill="black" fill-opacity="0.6"/>
</svg>
