<svg width="19" height="15" viewBox="0 0 19 15" fill="none" xmlns="http://www.w3.org/2000/svg">
<path d="M15.0007 14.1668V9.16683M12.5007 11.6668H17.5007M17.5007 5.00016H0.833984M17.5007 6.66683V3.50016C17.5007 2.56674 17.5007 2.10003 17.319 1.74351C17.1592 1.42991 16.9042 1.17494 16.5906 1.01515C16.2341 0.833496 15.7674 0.833496 14.834 0.833496H3.50065C2.56723 0.833496 2.10052 0.833496 1.744 1.01515C1.4304 1.17494 1.17543 1.42991 1.01564 1.74351C0.833984 2.10003 0.833984 2.56674 0.833984 3.50016V9.8335C0.833984 10.7669 0.833984 11.2336 1.01564 11.5901C1.17543 11.9037 1.4304 12.1587 1.744 12.3185C2.10052 12.5002 2.56723 12.5002 3.50065 12.5002H9.16732" stroke="#007AFF" stroke-width="1.66667" stroke-linecap="round" stroke-linejoin="round"/>
</svg>
