<svg width="20" height="20" viewBox="0 0 20 20" fill="none" xmlns="http://www.w3.org/2000/svg">
<path d="M2.98167 3.125C2.68198 3.125 2.45745 3.39969 2.50683 3.67438L4.53027 16.0633C4.58027 16.388 4.8548 16.6125 5.17948 16.6125H14.9701C15.1954 16.6125 15.3951 16.4375 15.4451 16.2128L17.4934 3.69938C17.5428 3.39969 17.3182 3.15 17.0185 3.15L2.98167 3.125ZM11.5735 12.0667H8.45167L7.62698 7.64594H12.3481L11.5735 12.0667Z" fill="#2684FF"/>
<path d="M16.8188 7.64844H12.3232L11.5735 12.0692H8.45166L4.77979 16.4398C4.77979 16.4398 4.95478 16.59 5.20463 16.59H14.9953C15.2204 16.59 15.4201 16.415 15.4701 16.1903L16.8188 7.64844Z" fill="url(#paint0_linear_563_43240)"/>
<defs>
<linearGradient id="paint0_linear_563_43240" x1="17.8707" y1="8.89375" x2="10.4201" y2="14.71" gradientUnits="userSpaceOnUse">
<stop offset="0.176" stop-color="#0052CC"/>
<stop offset="1" stop-color="#2684FF"/>
</linearGradient>
</defs>
</svg>
