<svg width="20" height="20" viewBox="0 0 20 20" fill="none" xmlns="http://www.w3.org/2000/svg">
<path d="M18.3334 7.5H1.66675M1.66675 6.5L1.66675 13.5C1.66675 14.9001 1.66675 15.6002 1.93923 16.135C2.17892 16.6054 2.56137 16.9878 3.03177 17.2275C3.56655 17.5 4.26662 17.5 5.66675 17.5H14.3334C15.7335 17.5 16.4336 17.5 16.9684 17.2275C17.4388 16.9878 17.8212 16.6054 18.0609 16.135C18.3334 15.6002 18.3334 14.9001 18.3334 13.5V6.5C18.3334 5.09987 18.3334 4.3998 18.0609 3.86502C17.8212 3.39462 17.4388 3.01217 16.9684 2.77248C16.4336 2.5 15.7335 2.5 14.3334 2.5L5.66675 2.5C4.26662 2.5 3.56655 2.5 3.03177 2.77248C2.56137 3.01217 2.17892 3.39462 1.93923 3.86502C1.66675 4.3998 1.66675 5.09987 1.66675 6.5Z" stroke="#475467" stroke-width="1.67" stroke-linecap="round" stroke-linejoin="round"/>
</svg>
