<svg width="20" height="20" viewBox="0 0 20 20" fill="none" xmlns="http://www.w3.org/2000/svg">
<path d="M5.00033 8.33341V11.6667M15.0003 8.33341V11.6667M1.66699 6.83341L1.66699 13.1667C1.66699 14.1002 1.66699 14.5669 1.84865 14.9234C2.00844 15.237 2.2634 15.492 2.57701 15.6518C2.93353 15.8334 3.40024 15.8334 4.33366 15.8334L15.667 15.8334C16.6004 15.8334 17.0671 15.8334 17.4236 15.6518C17.7372 15.492 17.9922 15.237 18.152 14.9234C18.3337 14.5669 18.3337 14.1002 18.3337 13.1667V6.83342C18.3337 5.89999 18.3337 5.43328 18.152 5.07677C17.9922 4.76316 17.7372 4.50819 17.4236 4.34841C17.0671 4.16675 16.6004 4.16675 15.667 4.16675L4.33366 4.16675C3.40024 4.16675 2.93353 4.16675 2.57701 4.3484C2.2634 4.50819 2.00844 4.76316 1.84865 5.07676C1.66699 5.43328 1.66699 5.89999 1.66699 6.83341ZM12.0837 10.0001C12.0837 11.1507 11.1509 12.0834 10.0003 12.0834C8.84973 12.0834 7.91699 11.1507 7.91699 10.0001C7.91699 8.84949 8.84973 7.91675 10.0003 7.91675C11.1509 7.91675 12.0837 8.84949 12.0837 10.0001Z" stroke="black" stroke-width="1.5" stroke-linecap="round" stroke-linejoin="round"/>
</svg>
