<svg width="556" height="444" viewBox="0 0 556 444" fill="none" xmlns="http://www.w3.org/2000/svg">
<path d="M397.762 22.9676C433.315 46.4744 439.935 94.0911 462.906 130.002C487.732 168.813 526.855 197.89 538.217 242.544C551.945 296.5 572.523 366.756 533.159 406.114C492.003 447.262 420.306 410.992 362.564 418.166C322.043 423.2 284.899 450.238 244.921 441.924C204.97 433.615 181.198 394.847 146.574 373.246C99.6434 343.967 26.2178 343.807 5.44957 292.523C-14.6623 242.861 25.3446 188.245 53.0936 142.413C77.1111 102.745 113.661 74.4231 152.67 49.3677C188.941 26.0716 227.635 7.39943 270.49 2.78339C314.079 -1.91191 361.186 -1.21536 397.762 22.9676Z" fill="#FAFAFA"/>
</svg>
