<svg width="20" height="20" viewBox="0 0 20 20" fill="none" xmlns="http://www.w3.org/2000/svg">
<g clip-path="url(#clip0_532_21365)">
<path d="M7.49984 1.66602V3.33268M12.4998 1.66602V3.33268M7.49984 16.666V18.3327M12.4998 16.666V18.3327M16.6665 7.49935H18.3332M16.6665 11.666H18.3332M1.6665 7.49935H3.33317M1.6665 11.666H3.33317M7.33317 16.666H12.6665C14.0666 16.666 14.7667 16.666 15.3015 16.3935C15.7719 16.1538 16.1543 15.7714 16.394 15.301C16.6665 14.7662 16.6665 14.0661 16.6665 12.666V7.33268C16.6665 5.93255 16.6665 5.23249 16.394 4.69771C16.1543 4.2273 15.7719 3.84485 15.3015 3.60517C14.7667 3.33268 14.0666 3.33268 12.6665 3.33268H7.33317C5.93304 3.33268 5.23297 3.33268 4.69819 3.60517C4.22779 3.84485 3.84534 4.2273 3.60565 4.69771C3.33317 5.23249 3.33317 5.93255 3.33317 7.33268V12.666C3.33317 14.0661 3.33317 14.7662 3.60565 15.301C3.84534 15.7714 4.22779 16.1538 4.69819 16.3935C5.23297 16.666 5.93304 16.666 7.33317 16.666ZM8.83317 12.4993H11.1665C11.6332 12.4993 11.8666 12.4993 12.0448 12.4085C12.2016 12.3286 12.3291 12.2011 12.409 12.0443C12.4998 11.8661 12.4998 11.6327 12.4998 11.166V8.83268C12.4998 8.36597 12.4998 8.13262 12.409 7.95436C12.3291 7.79756 12.2016 7.67007 12.0448 7.59018C11.8666 7.49935 11.6332 7.49935 11.1665 7.49935H8.83317C8.36646 7.49935 8.13311 7.49935 7.95485 7.59018C7.79804 7.67007 7.67056 7.79756 7.59067 7.95436C7.49984 8.13262 7.49984 8.36597 7.49984 8.83268V11.166C7.49984 11.6327 7.49984 11.8661 7.59067 12.0443C7.67056 12.2011 7.79804 12.3286 7.95485 12.4085C8.13311 12.4993 8.36646 12.4993 8.83317 12.4993Z" stroke="#475467" stroke-width="1.67" stroke-linecap="round" stroke-linejoin="round"/>
</g>
<defs>
<clipPath id="clip0_532_21365">
<rect width="20" height="20" fill="white"/>
</clipPath>
</defs>
</svg>
