<svg width="20" height="20" viewBox="0 0 20 20" fill="none" xmlns="http://www.w3.org/2000/svg">
<path d="M16.6666 10.416V5.66602C16.6666 4.26588 16.6666 3.56582 16.3941 3.03104C16.1544 2.56063 15.772 2.17818 15.3016 1.9385C14.7668 1.66602 14.0667 1.66602 12.6666 1.66602H7.33325C5.93312 1.66602 5.23306 1.66602 4.69828 1.9385C4.22787 2.17818 3.84542 2.56063 3.60574 3.03104C3.33325 3.56582 3.33325 4.26588 3.33325 5.66602V14.3327C3.33325 15.7328 3.33325 16.4329 3.60574 16.9677C3.84542 17.4381 4.22787 17.8205 4.69828 18.0602C5.23306 18.3327 5.93308 18.3327 7.33313 18.3327H10.4166M11.6666 9.16602H6.66659M8.33325 12.4993H6.66659M13.3333 5.83268H6.66659M12.4999 15.8327L14.9999 18.3327M14.9999 18.3327L17.4999 15.8327M14.9999 18.3327V13.3327" stroke="#475467" stroke-width="1.67" stroke-linecap="round" stroke-linejoin="round"/>
</svg>
