<svg width="20" height="21" viewBox="0 0 20 21" fill="none" xmlns="http://www.w3.org/2000/svg">
<path d="M7.51841 3H4.33317C3.39975 3 2.93304 3 2.57652 3.18166C2.26292 3.34144 2.00795 3.59641 1.84816 3.91002C1.6665 4.26654 1.6665 4.73325 1.6665 5.66667V6.33333H10.8332L9.90355 4.4741C9.63601 3.939 9.50222 3.67144 9.30265 3.47597C9.12615 3.30311 8.91344 3.17164 8.6799 3.09109C8.41581 3 8.11668 3 7.51841 3Z" fill="#DBF1D7" stroke="#449424" stroke-width="1.5" stroke-linecap="round" stroke-linejoin="round"/>
<path d="M10.8332 6.33333L9.90355 4.4741C9.63601 3.939 9.50222 3.67144 9.30265 3.47597C9.12615 3.30311 8.91344 3.17165 8.6799 3.09109C8.41581 3 8.11668 3 7.51841 3H4.33317C3.39975 3 2.93304 3 2.57652 3.18166C2.26292 3.34144 2.00795 3.59641 1.84816 3.91002C1.6665 4.26654 1.6665 4.73325 1.6665 5.66667V6.33333M1.6665 6.33333H14.3332C15.7333 6.33333 16.4334 6.33333 16.9681 6.60582C17.4386 6.8455 17.821 7.22795 18.0607 7.69836C18.3332 8.23314 18.3332 8.9332 18.3332 10.3333V14C18.3332 15.4001 18.3332 16.1002 18.0607 16.635C17.821 17.1054 17.4386 17.4878 16.9681 17.7275C16.4334 18 15.7333 18 14.3332 18H5.6665C4.26637 18 3.56631 18 3.03153 17.7275C2.56112 17.4878 2.17867 17.1054 1.93899 16.635C1.6665 16.1002 1.6665 15.4001 1.6665 14V6.33333Z" stroke="#449424" stroke-width="1.5" stroke-linecap="round" stroke-linejoin="round"/>
<path d="M1.6665 6.33334H14.3332C15.7333 6.33334 16.4334 6.33334 16.9681 6.60582C17.4386 6.8455 17.821 7.22795 18.0607 7.69836C18.3332 8.23314 18.3332 8.93321 18.3332 10.3333V14C18.3332 15.4001 18.3332 16.1002 18.0607 16.635C17.821 17.1054 17.4386 17.4878 16.9681 17.7275C16.4334 18 15.7333 18 14.3332 18H5.6665C4.26637 18 3.56631 18 3.03153 17.7275C2.56112 17.4878 2.17867 17.1054 1.93899 16.635C1.6665 16.1002 1.6665 15.4001 1.6665 14V6.33334Z" fill="#449424"/>
</svg>
