<svg width="20" height="20" viewBox="0 0 20 20" fill="none" xmlns="http://www.w3.org/2000/svg">
<path fill-rule="evenodd" clip-rule="evenodd" d="M10.0001 3C5.97952 3 2.71924 6.25955 2.71924 10.2809C2.71924 13.4979 4.80543 16.2269 7.69833 17.1898C8.06209 17.2573 8.19568 17.0318 8.19568 16.8395C8.19568 16.6659 8.18892 16.0924 8.18579 15.484C6.16025 15.9244 5.73283 14.6249 5.73283 14.6249C5.40163 13.7834 4.92443 13.5596 4.92443 13.5596C4.26371 13.1077 4.97422 13.1171 4.97422 13.1171C5.70522 13.1683 6.09032 13.8674 6.09032 13.8674C6.7397 14.9802 7.79358 14.6586 8.20906 14.4726C8.27441 14.0021 8.4631 13.6808 8.67132 13.4989C7.05414 13.3151 5.35401 12.6906 5.35401 9.90083C5.35401 9.10592 5.63855 8.45642 6.1043 7.94642C6.02859 7.76316 5.77937 7.02263 6.17472 6.01974C6.17472 6.01974 6.786 5.82406 8.17735 6.76606C8.75825 6.60462 9.38122 6.52348 10.0001 6.5207C10.6186 6.52348 11.2419 6.60438 11.8239 6.76582C13.2136 5.82382 13.8241 6.0195 13.8241 6.0195C14.2205 7.02227 13.9712 7.76292 13.8956 7.94618C14.3625 8.45618 14.645 9.10568 14.645 9.90059C14.645 12.697 12.9417 13.3127 11.3204 13.493C11.5817 13.719 11.8144 14.1622 11.8144 14.8413C11.8144 15.8155 11.806 16.5996 11.806 16.8394C11.806 17.0331 11.9371 17.2602 12.3061 17.1887C15.1973 16.2249 17.2811 13.4966 17.2811 10.2809C17.281 6.25979 14.021 3 10.0001 3Z" fill="#181616"/>
<path d="M5.47686 13.4514C5.46082 13.4875 5.40392 13.4984 5.35207 13.4737C5.29902 13.45 5.26948 13.4007 5.2866 13.3644C5.30228 13.3271 5.35931 13.3168 5.41199 13.3418C5.46504 13.3655 5.49519 13.4153 5.47674 13.4515L5.47686 13.4514ZM5.77177 13.7804C5.73717 13.8126 5.66929 13.7976 5.62323 13.7466C5.57548 13.696 5.56656 13.6281 5.60189 13.5955C5.63782 13.5634 5.70365 13.5786 5.75139 13.6292C5.7989 13.6806 5.8083 13.7479 5.77189 13.7805L5.77177 13.7804ZM6.05896 14.1996C6.01435 14.2307 5.94129 14.2017 5.89619 14.1369C5.85158 14.0721 5.85158 13.9943 5.8974 13.9633C5.94237 13.9322 6.01435 13.9603 6.06017 14.0244C6.10454 14.0901 6.10454 14.168 6.05896 14.1996ZM6.45213 14.6048C6.41235 14.6489 6.32723 14.637 6.26501 14.5771C6.20147 14.5184 6.18375 14.4348 6.22366 14.391C6.26417 14.3468 6.34965 14.3591 6.41223 14.4187C6.47577 14.4773 6.49494 14.561 6.45238 14.6047L6.45213 14.6048ZM6.99469 14.8401C6.97697 14.8971 6.89522 14.923 6.81263 14.8987C6.73028 14.8737 6.67639 14.807 6.69327 14.7494C6.71015 14.6919 6.7925 14.665 6.87557 14.6909C6.95792 14.7158 7.01181 14.7821 6.99469 14.8401ZM7.59066 14.8836C7.59271 14.9436 7.52278 14.9933 7.43633 14.9945C7.34916 14.9966 7.27863 14.9479 7.27778 14.8888C7.27778 14.8281 7.34627 14.7791 7.43332 14.7774C7.51976 14.7758 7.59078 14.824 7.59078 14.8835L7.59066 14.8836ZM8.14503 14.7893C8.1554 14.8478 8.09523 14.908 8.00927 14.924C7.92487 14.9397 7.8465 14.9033 7.83565 14.8453C7.82528 14.7852 7.88653 14.7251 7.97093 14.7095C8.05701 14.6947 8.13418 14.7299 8.14503 14.7893Z" fill="#181616"/>
</svg>
