<svg width="20" height="20" viewBox="0 0 20 20" fill="none" xmlns="http://www.w3.org/2000/svg">
<path d="M9.99967 10.0001L6.43894 7.0328C5.90989 6.59193 5.64537 6.3715 5.45521 6.10128C5.28671 5.86186 5.16158 5.5947 5.08552 5.31198C4.99967 4.9929 4.99967 4.64857 4.99967 3.95992V1.66675M9.99967 10.0001L13.5604 7.0328C14.0895 6.59193 14.354 6.3715 14.5441 6.10128C14.7126 5.86186 14.8378 5.5947 14.9138 5.31198C14.9997 4.9929 14.9997 4.64857 14.9997 3.95992V1.66675M9.99967 10.0001L6.43894 12.9674C5.90989 13.4082 5.64537 13.6287 5.45521 13.8989C5.28671 14.1383 5.16158 14.4055 5.08552 14.6882C4.99967 15.0073 4.99967 15.3516 4.99967 16.0402V18.3334M9.99967 10.0001L13.5604 12.9674C14.0895 13.4082 14.354 13.6287 14.5441 13.8989C14.7126 14.1383 14.8378 14.4055 14.9138 14.6882C14.9997 15.0073 14.9997 15.3516 14.9997 16.0402V18.3334M3.33301 1.66675H16.6663M3.33301 18.3334H16.6663" stroke="black" stroke-width="1.5" stroke-linecap="round" stroke-linejoin="round"/>
</svg>
