<svg width="20" height="20" viewBox="0 0 20 20" fill="none" xmlns="http://www.w3.org/2000/svg">
<path d="M1.66666 5.83301L8.47076 10.5959C9.02173 10.9816 9.29722 11.1744 9.59688 11.2491C9.86157 11.3151 10.1384 11.3151 10.4031 11.2491C10.7028 11.1744 10.9782 10.9816 11.5292 10.5959L18.3333 5.83301M5.66666 16.6663H14.3333C15.7335 16.6663 16.4335 16.6663 16.9683 16.3939C17.4387 16.1542 17.8212 15.7717 18.0608 15.3013C18.3333 14.7665 18.3333 14.0665 18.3333 12.6663V7.33301C18.3333 5.93288 18.3333 5.23281 18.0608 4.69803C17.8212 4.22763 17.4387 3.84517 16.9683 3.60549C16.4335 3.33301 15.7335 3.33301 14.3333 3.33301H5.66666C4.26653 3.33301 3.56646 3.33301 3.03168 3.60549C2.56128 3.84517 2.17882 4.22763 1.93914 4.69803C1.66666 5.23281 1.66666 5.93288 1.66666 7.33301V12.6663C1.66666 14.0665 1.66666 14.7665 1.93914 15.3013C2.17882 15.7717 2.56128 16.1542 3.03168 16.3939C3.56646 16.6663 4.26653 16.6663 5.66666 16.6663Z" stroke="#667085" stroke-width="1.66667" stroke-linecap="round" stroke-linejoin="round"/>
</svg>
