<svg width="20" height="20" viewBox="0 0 20 20" fill="none" xmlns="http://www.w3.org/2000/svg">
<g clip-path="url(#clip0_563_43177)">
<path d="M11.0056 0.007701C10.7593 -0.00831398 10.5124 0.0264759 10.2802 0.109909C10.0479 0.193343 9.83531 0.323638 9.65555 0.492701C9.31024 0.817921 9.10799 1.2668 9.09315 1.74092C9.07831 2.21504 9.25209 2.67569 9.57639 3.02187L12.4164 5.9802C12.6747 6.2567 12.8678 6.58751 12.9815 6.94836C13.0953 7.30921 13.1268 7.69095 13.0739 8.06559C13.0209 8.44022 12.8847 8.79824 12.6753 9.11339C12.466 9.42854 12.1887 9.69283 11.8639 9.88687L11.4781 10.086V6.07353C9.78687 6.94478 8.31023 8.18066 7.15475 9.69195C5.99926 11.2032 5.19376 12.9523 4.79639 14.8127V14.8269L10.2539 12.0535V18.4044L11.4822 20.0027V11.4044L12.2297 11.0185C12.7458 10.7585 13.1938 10.3813 13.538 9.91706C13.8822 9.45283 14.1129 8.91448 14.2117 8.34511C14.3105 7.77573 14.2747 7.19113 14.107 6.63808C13.9394 6.08504 13.6447 5.57891 13.2464 5.1602L10.4381 2.2227C10.3263 2.10167 10.2668 1.94141 10.2726 1.77677C10.2784 1.61214 10.3489 1.45644 10.4689 1.34353C10.5901 1.23162 10.7506 1.17215 10.9154 1.17808C11.0803 1.18401 11.2361 1.25487 11.3489 1.3752L11.7381 1.7802L11.7331 1.7852L15.1247 5.32187C15.1291 5.32645 15.1345 5.3301 15.1403 5.33259C15.1462 5.33509 15.1525 5.33637 15.1589 5.33637C15.1653 5.33637 15.1716 5.33509 15.1774 5.33259C15.1833 5.3301 15.1886 5.32645 15.1931 5.32187C15.1992 5.31337 15.2024 5.30317 15.2024 5.2927C15.2024 5.28224 15.1992 5.27203 15.1931 5.26353L12.5764 0.977701L12.4522 1.09687L12.5764 0.976034C12.0781 0.330201 11.5239 0.047701 11.0056 0.007701ZM10.2539 8.22853V10.7235L6.79389 12.5144C7.36812 11.2985 8.14822 10.1911 9.09972 9.24103C9.46179 8.87856 9.84735 8.54033 10.2539 8.22853Z" fill="#912018"/>
</g>
<defs>
<clipPath id="clip0_563_43177">
<rect width="20" height="20" fill="white"/>
</clipPath>
</defs>
</svg>
