<svg width="20" height="20" viewBox="0 0 20 20" fill="none" xmlns="http://www.w3.org/2000/svg">
<path d="M18.3332 9.16699V6.83366C18.3332 5.90024 18.3332 5.43353 18.1515 5.07701C17.9917 4.7634 17.7368 4.50844 17.4232 4.34865C17.0666 4.16699 16.5999 4.16699 15.6665 4.16699H4.33317C3.39975 4.16699 2.93304 4.16699 2.57652 4.34865C2.26292 4.50844 2.00795 4.7634 1.84816 5.07701C1.6665 5.43353 1.6665 5.90024 1.6665 6.83366V9.83366C1.6665 10.7671 1.6665 11.2338 1.84816 11.5903C2.00795 11.9039 2.26292 12.1589 2.57652 12.3187C2.93304 12.5003 3.39975 12.5003 4.33317 12.5003H9.1665M9.99984 8.33366H10.004M14.1665 8.33366H14.1707M5.83317 8.33366H5.83734M16.0415 14.167V12.7087C16.0415 11.9032 15.3886 11.2503 14.5832 11.2503C13.7778 11.2503 13.1248 11.9032 13.1248 12.7087V14.167M10.2082 8.33366C10.2082 8.44872 10.1149 8.54199 9.99984 8.54199C9.88478 8.54199 9.7915 8.44872 9.7915 8.33366C9.7915 8.2186 9.88478 8.12533 9.99984 8.12533C10.1149 8.12533 10.2082 8.2186 10.2082 8.33366ZM14.3748 8.33366C14.3748 8.44872 14.2816 8.54199 14.1665 8.54199C14.0514 8.54199 13.9582 8.44872 13.9582 8.33366C13.9582 8.2186 14.0514 8.12533 14.1665 8.12533C14.2816 8.12533 14.3748 8.2186 14.3748 8.33366ZM6.0415 8.33366C6.0415 8.44872 5.94823 8.54199 5.83317 8.54199C5.71811 8.54199 5.62484 8.44872 5.62484 8.33366C5.62484 8.2186 5.71811 8.12533 5.83317 8.12533C5.94823 8.12533 6.0415 8.2186 6.0415 8.33366ZM12.9998 17.5003H16.1665C16.6332 17.5003 16.8666 17.5003 17.0448 17.4095C17.2016 17.3296 17.3291 17.2021 17.409 17.0453C17.4998 16.8671 17.4998 16.6337 17.4998 16.167V15.5003C17.4998 15.0336 17.4998 14.8003 17.409 14.622C17.3291 14.4652 17.2016 14.3377 17.0448 14.2578C16.8666 14.167 16.6332 14.167 16.1665 14.167H12.9998C12.5331 14.167 12.2998 14.167 12.1215 14.2578C11.9647 14.3377 11.8372 14.4652 11.7573 14.622C11.6665 14.8003 11.6665 15.0336 11.6665 15.5003V16.167C11.6665 16.6337 11.6665 16.8671 11.7573 17.0453C11.8372 17.2021 11.9647 17.3296 12.1215 17.4095C12.2998 17.5003 12.5331 17.5003 12.9998 17.5003Z" stroke="#667085" stroke-width="1.66667" stroke-linecap="round" stroke-linejoin="round"/>
</svg>
