<svg width="20" height="20" viewBox="0 0 20 20" fill="none" xmlns="http://www.w3.org/2000/svg">
<g clip-path="url(#clip0_563_43165)">
<path d="M14.6576 14.3917C14.7802 13.371 14.7435 13.2211 15.5038 13.3866L15.6968 13.4035C16.2815 13.43 17.0463 13.3094 17.4957 13.1007C18.463 12.6517 19.0365 11.9025 18.0829 12.0992C15.9072 12.5482 15.7577 11.8114 15.7577 11.8114C18.0551 8.40284 19.0154 4.07581 18.1863 3.01659C15.9254 0.127686 12.0118 1.49378 11.9463 1.52909L11.9254 1.533C11.4955 1.44378 11.0144 1.3905 10.474 1.38175C9.48943 1.3655 8.7424 1.63987 8.17568 2.06956C8.17568 2.06956 1.19396 -0.806845 1.51881 5.6869C1.58787 7.06831 3.49881 16.1397 5.77818 13.3997C6.61131 12.3978 7.41631 11.5507 7.41631 11.5507C7.81599 11.8161 8.29474 11.9517 8.79662 11.903L8.83553 11.8699C8.82334 11.9942 8.82865 12.116 8.85099 12.26C8.26396 12.9161 8.43646 13.0313 7.26256 13.2728C6.07474 13.5175 6.77256 13.9533 7.22802 14.0672C7.78037 14.2053 9.05803 14.401 9.92146 13.1925L9.88709 13.3303C10.1174 13.5147 10.1019 14.6549 10.1344 15.4694C10.1671 16.2841 10.2216 17.0442 10.3877 17.4925C10.5538 17.9408 10.7497 19.095 12.2926 18.7644C13.5819 18.4888 14.5677 18.0911 14.6576 14.3917Z" fill="black"/>
<path d="M11.7901 19.5721C11.1078 19.5721 10.6634 19.3082 10.3936 19.0534C9.98621 18.669 9.82465 18.1739 9.72809 17.8781L9.68637 17.7546C9.49199 17.2299 9.42605 16.4745 9.38699 15.5017C9.38105 15.3556 9.37699 15.2051 9.37246 15.0456C9.36918 14.9289 9.36512 14.7824 9.35918 14.6293C9.11335 14.7465 8.85241 14.829 8.58387 14.8743C8.10277 14.9565 7.58559 14.9299 7.04637 14.7951C6.6659 14.6999 6.27059 14.5028 6.04527 14.1982C5.38855 14.7734 4.76215 14.6954 4.4209 14.5815C3.81887 14.3807 3.28012 13.8165 2.77371 12.857C2.41293 12.1734 2.06402 11.2828 1.73652 10.2096C1.16621 8.34089 0.803867 6.37261 0.771679 5.72636C0.670429 3.7037 1.21496 2.25714 2.3898 1.42729C4.24309 0.11823 7.05105 0.888074 8.0748 1.23761C8.76262 0.823074 9.57184 0.621355 10.4862 0.635886C10.9773 0.643855 11.445 0.68698 11.8793 0.76448C12.3325 0.62198 13.2275 0.417449 14.252 0.430261C16.1396 0.452761 17.7039 1.18839 18.7753 2.55761C19.54 3.53448 19.1618 5.58589 18.8686 6.72182C18.4557 8.31964 17.7325 10.019 16.844 11.4984C17.0853 11.5001 17.4348 11.4712 17.9317 11.3685C18.912 11.1662 19.1987 11.6918 19.2765 11.9271C19.5882 12.8712 18.2332 13.5846 17.8106 13.7809C17.269 14.0323 16.3861 14.1854 15.6629 14.1523L15.6314 14.1503L15.4414 14.1335L15.4226 14.292L15.4045 14.4468C15.3559 16.3217 15.0881 17.509 14.537 18.2935C13.9593 19.116 13.1565 19.3465 12.4493 19.4981C12.2081 19.5496 11.9889 19.5721 11.7901 19.5721ZM10.3542 12.7485C10.7946 13.101 10.8332 13.7643 10.8678 15.0039C10.8721 15.1585 10.8762 15.3049 10.8817 15.4417C10.8982 15.8557 10.9371 16.8253 11.089 17.2349C11.1104 17.2929 11.1296 17.3517 11.15 17.414C11.3192 17.9321 11.404 18.192 12.1357 18.0356C12.75 17.9039 13.0657 17.7857 13.3129 17.4339C13.6721 16.9223 13.8731 15.8932 13.91 14.3753L14.6573 14.3934L13.9151 14.3043L13.937 14.119C14.0081 13.5081 14.0593 13.0668 14.4676 12.7749C14.7953 12.5409 15.1686 12.5635 15.4659 12.6171C15.1392 12.3703 15.0489 12.0807 15.0248 11.962L14.9625 11.6549L15.1376 11.3951C16.1465 9.89823 16.9784 8.05854 17.4203 6.3476C17.8743 4.58964 17.7359 3.65604 17.5975 3.47948C15.7648 1.13776 12.5868 2.10464 12.255 2.21432L12.1989 2.24464L11.9176 2.29698L11.7736 2.26714C11.3764 2.18464 10.9351 2.13901 10.4621 2.13136C9.71902 2.11886 9.11949 2.29448 8.62793 2.66745L8.28684 2.92604L7.89105 2.76307C7.04543 2.41729 4.56168 1.72214 3.25105 2.65042C2.52355 3.16573 2.19215 4.17542 2.2659 5.65151C2.29027 6.13886 2.62137 7.9837 3.16762 9.77292C3.92246 12.2456 4.6084 13.067 4.8948 13.1624C4.9448 13.1793 5.07449 13.0785 5.20355 12.9235C5.7417 12.2785 6.29893 11.6495 6.87449 11.0376L7.3073 10.5821L7.83059 10.9298C8.04152 11.0699 8.27418 11.1495 8.51309 11.1645L9.76105 10.1001L9.58027 11.9451C9.57621 11.9865 9.57418 12.0429 9.59043 12.1476L9.6448 12.4973L9.40887 12.761L9.38168 12.7917L10.0673 13.1081L10.3542 12.7485Z" fill="black"/>
<path d="M18.0828 12.0991C15.9071 12.548 15.7575 11.8113 15.7575 11.8113C18.0549 8.40253 19.0152 4.07534 18.1864 3.01643C15.9255 0.127684 12.0116 1.49378 11.9463 1.52925L11.9252 1.533C11.4953 1.44378 11.0142 1.39065 10.4735 1.3819C9.48893 1.36581 8.74221 1.64003 8.1755 2.06971C8.1755 2.06971 1.19362 -0.806535 1.51831 5.68706C1.58737 7.06862 3.49831 16.14 5.77768 13.4C6.61081 12.3982 7.41565 11.551 7.41565 11.551C7.8155 11.8164 8.29409 11.9521 8.79581 11.9033L8.83487 11.8702C8.82268 11.9946 8.82831 12.1163 8.8505 12.2603C8.26331 12.9164 8.43581 13.0316 7.2619 13.2732C6.07409 13.5178 6.7719 13.9536 7.22753 14.0675C7.77971 14.2057 9.05753 14.4013 9.92081 13.1928L9.88628 13.3307C10.1164 13.515 10.278 14.5294 10.251 15.4489C10.2239 16.3685 10.2057 16.9999 10.3871 17.493C10.5683 17.9861 10.7489 19.0955 12.2921 18.7649C13.5814 18.4886 14.2496 17.7725 14.3427 16.5782C14.4086 15.7289 14.5578 15.8546 14.5674 15.0953L14.6872 14.736C14.8253 13.5849 14.7091 13.2136 15.5036 13.3863L15.6966 13.4032C16.2813 13.4297 17.0464 13.3091 17.4957 13.1003C18.4628 12.6517 19.0364 11.9024 18.0828 12.0991Z" fill="#336791"/>
<path d="M11.8681 19.1123C10.5819 19.1123 10.1744 18.0937 10.0077 17.6772C9.76359 17.0667 9.71094 14.6976 9.76531 12.7548C9.76612 12.7221 9.7734 12.6898 9.78674 12.6599C9.80008 12.6299 9.81921 12.6029 9.84302 12.5804C9.86684 12.5579 9.89488 12.5403 9.92552 12.5287C9.95616 12.5171 9.9888 12.5116 10.0216 12.5126C10.0543 12.5135 10.0865 12.5209 10.1164 12.5342C10.1463 12.5476 10.1733 12.5667 10.1957 12.5905C10.2182 12.6143 10.2358 12.6423 10.2475 12.6728C10.2592 12.7034 10.2647 12.736 10.2637 12.7687C10.2011 15.0095 10.29 17.0401 10.4706 17.492C10.7525 18.1966 11.18 18.8128 12.3886 18.5539C13.5359 18.3078 13.9656 17.8728 14.157 16.7633C14.3039 15.9119 14.5944 13.4897 14.6302 13.0117C14.6325 12.979 14.6414 12.9472 14.6561 12.9179C14.6708 12.8887 14.6912 12.8626 14.716 12.8413C14.7408 12.8199 14.7696 12.8036 14.8007 12.7934C14.8319 12.7832 14.8647 12.7792 14.8973 12.7817C14.9632 12.7867 15.0245 12.8176 15.0676 12.8677C15.1107 12.9178 15.1322 12.983 15.1273 13.0489C15.09 13.5466 14.8009 15.9641 14.6484 16.8481C14.4225 18.1586 13.8383 18.753 12.4931 19.0414C12.2645 19.0903 12.0569 19.1122 11.8681 19.1123ZM4.89375 14.1372C4.78132 14.1368 4.66968 14.1184 4.56312 14.0825C3.72765 13.8037 2.93187 12.4431 2.19781 10.038C1.63906 8.20717 1.285 6.29624 1.2539 5.67514C1.16187 3.83389 1.63594 2.53124 2.66328 1.80358C4.69562 0.36358 8.11453 1.73483 8.25906 1.79389C8.32029 1.8189 8.36907 1.86721 8.39468 1.92819C8.42029 1.98917 8.42063 2.05782 8.39562 2.11905C8.37061 2.18028 8.32231 2.22906 8.26133 2.25467C8.20035 2.28028 8.13169 2.28062 8.07047 2.25561C8.0375 2.24217 4.75906 0.928736 2.95047 2.21108C2.07203 2.83389 1.66875 3.99108 1.75172 5.6503C1.77781 6.17358 2.10859 8.03858 2.67453 9.89233C3.32984 12.0395 4.07562 13.3944 4.72078 13.6095C4.82203 13.6433 5.13015 13.7459 5.57062 13.2162C6.08426 12.5993 6.61718 11.9987 7.16859 11.4153C7.21473 11.3693 7.27705 11.3432 7.34221 11.3425C7.40737 11.3418 7.4702 11.3667 7.51724 11.4118C7.56429 11.4569 7.59182 11.5186 7.59394 11.5837C7.59606 11.6489 7.57261 11.7122 7.52859 11.7603C7.52109 11.7681 6.77125 12.552 5.95406 13.5351C5.56703 14.0006 5.19609 14.1372 4.89375 14.1372ZM15.742 12.0364C15.6968 12.0363 15.6525 12.024 15.6138 12.0007C15.575 11.9774 15.5434 11.944 15.5222 11.9041C15.5009 11.8642 15.491 11.8192 15.4933 11.7741C15.4957 11.729 15.5102 11.6853 15.5355 11.6478C17.8578 8.20171 18.673 4.0378 17.9748 3.14561C17.0961 2.0228 15.8553 1.43639 14.2867 1.40249C13.1253 1.37749 12.2022 1.67405 12.0512 1.72577L12.0133 1.74124C11.8616 1.78889 11.7452 1.70577 11.7012 1.60858C11.6762 1.5529 11.6724 1.48998 11.6906 1.43169C11.7087 1.37341 11.7476 1.32378 11.7998 1.29217C11.807 1.28796 11.8298 1.27827 11.8669 1.26467C12.1233 1.17077 13.0605 0.889518 14.2212 0.902799C15.9569 0.921236 17.3906 1.59046 18.3672 2.83842C18.8292 3.42889 18.8303 4.78921 18.3702 6.57077C17.9011 8.38717 17.0184 10.3392 15.9487 11.9266C15.9009 11.998 15.8222 12.0364 15.742 12.0364ZM15.8608 13.6317C15.4642 13.6317 15.1087 13.5758 14.8959 13.4483C14.6772 13.3172 14.6355 13.1391 14.63 13.0445C14.5703 11.9961 15.1487 11.8136 15.4437 11.7303C15.4027 11.6681 15.3442 11.595 15.2837 11.5195C15.1117 11.3045 14.8761 11.0101 14.6945 10.5698C14.6661 10.5011 14.577 10.3412 14.4739 10.1561C13.9147 9.15327 12.7511 7.06655 13.4986 5.99796C13.8445 5.50342 14.5334 5.30874 15.5484 5.41733C15.2498 4.50764 13.828 1.66202 10.4541 1.60671C9.43937 1.58983 8.60718 1.90186 7.98187 2.53327C6.58187 3.94717 6.6325 6.50546 6.63328 6.53108C6.63414 6.56381 6.62855 6.59639 6.61682 6.62695C6.60509 6.65752 6.58746 6.68548 6.56492 6.70923C6.54239 6.73298 6.5154 6.75206 6.4855 6.76538C6.45559 6.7787 6.42335 6.786 6.39062 6.78686C6.35789 6.78772 6.32532 6.78213 6.29475 6.7704C6.26418 6.75867 6.23623 6.74104 6.21248 6.71851C6.18872 6.69597 6.16964 6.66898 6.15632 6.63908C6.143 6.60917 6.1357 6.57693 6.13484 6.54421C6.13172 6.43061 6.07953 3.74592 7.62765 2.18233C8.35219 1.45061 9.30593 1.08936 10.4623 1.10827C12.6208 1.14374 14.0102 2.24108 14.7955 3.1553C15.6516 4.15171 16.0712 5.25077 16.1058 5.61764C16.1316 5.89046 15.9358 5.94499 15.8962 5.95311L15.8062 5.95514C14.8102 5.79561 14.1711 5.90639 13.9069 6.28389C13.3383 7.09655 14.4391 9.07046 14.9091 9.91342C15.0291 10.1284 15.1156 10.2839 15.1553 10.3798C15.3097 10.7542 15.5111 11.0058 15.6728 11.208C15.8152 11.3858 15.9384 11.54 15.9825 11.7209C16.003 11.7569 16.2934 12.1866 18.017 11.8308C18.4491 11.7417 18.7081 11.8178 18.7873 12.0573C18.9431 12.5284 18.0691 13.078 17.5852 13.3026C17.1516 13.5042 16.4595 13.6317 15.8608 13.6317ZM15.127 13.0034C15.1817 13.0586 15.4553 13.1537 16.0219 13.1294C16.5256 13.1078 17.0569 12.9983 17.3756 12.8503C17.7833 12.6609 18.0555 12.4492 18.1964 12.3047L18.1183 12.3191C17.0162 12.5466 16.2367 12.5162 15.8014 12.2289C15.7721 12.2096 15.744 12.1887 15.717 12.1662C15.6698 12.1848 15.6262 12.197 15.5952 12.2058C15.3483 12.275 15.093 12.3467 15.127 13.0034ZM8.00797 14.3964C7.73422 14.3964 7.44609 14.3591 7.15187 14.2855C6.84703 14.2092 6.33312 13.9797 6.34094 13.6026C6.34984 13.1797 6.965 13.0528 7.19656 13.0051C8.03312 12.8328 8.08765 12.7637 8.34906 12.4317C8.42531 12.335 8.52015 12.2145 8.64953 12.0701C8.84156 11.8551 9.0514 11.7462 9.27328 11.7462C9.42781 11.7462 9.55453 11.7986 9.63828 11.8334C9.90515 11.9441 10.1278 12.2116 10.2194 12.5314C10.302 12.82 10.2625 13.0978 10.1084 13.3136C9.60265 14.0219 8.87625 14.3964 8.00797 14.3964ZM6.87953 13.6241C6.95469 13.6822 7.10531 13.7598 7.27297 13.8017C7.52781 13.8655 7.775 13.8978 8.00812 13.8978C8.71843 13.8978 9.28875 13.6037 9.70297 13.0237C9.78937 12.9028 9.76344 12.7492 9.74031 12.6684C9.69187 12.4992 9.57156 12.3453 9.44765 12.2939C9.38047 12.2661 9.32469 12.2448 9.27344 12.2448C9.24594 12.2448 9.16219 12.2448 9.02125 12.4025C8.92398 12.5119 8.83049 12.6245 8.74094 12.7403C8.41531 13.1537 8.26609 13.2941 7.29734 13.4936C7.06094 13.542 6.93968 13.5914 6.87953 13.6241ZM8.79656 12.4741C8.73704 12.474 8.67952 12.4526 8.63439 12.4138C8.58926 12.375 8.55949 12.3213 8.55047 12.2625C8.54421 12.2211 8.54004 12.1794 8.53797 12.1376C7.90297 12.1258 7.29031 11.8533 6.82515 11.368C6.23703 10.7544 5.96937 9.90421 6.09094 9.03561C6.22297 8.09233 6.17359 7.25967 6.14703 6.81233C6.13969 6.68796 6.13437 6.59811 6.13469 6.53592C6.13515 6.45702 6.13672 6.2478 6.83609 5.89327C7.08484 5.76717 7.58359 5.54717 8.12844 5.49077C9.03109 5.39749 9.62609 5.79952 9.80422 6.62296C10.285 8.84608 9.84234 9.82936 9.51906 10.5475C9.4589 10.6812 9.40203 10.8075 9.35656 10.9298L9.3164 11.0376C9.14562 11.4956 8.99797 11.8912 9.04328 12.1867C9.04825 12.2191 9.0468 12.2521 9.03901 12.2839C9.03122 12.3157 9.01724 12.3456 8.99787 12.372C8.9785 12.3984 8.95412 12.4207 8.92612 12.4377C8.89812 12.4547 8.86705 12.466 8.83469 12.4709L8.79656 12.4741ZM6.63484 6.60499L6.64453 6.78296C6.67203 7.24764 6.72328 8.11233 6.58453 9.10483C6.48437 9.82124 6.70312 10.5205 7.185 11.023C7.56578 11.4201 8.06687 11.6394 8.58187 11.6394H8.5925C8.65015 11.3964 8.74593 11.1398 8.84906 10.8634L8.8889 10.7562C8.94031 10.6181 9.00047 10.4844 9.06422 10.3428C9.37531 9.65155 9.76265 8.79108 9.31656 6.72842C9.22828 6.31983 9.01406 6.08342 8.66203 6.00546C7.9389 5.84577 6.86125 6.38967 6.63484 6.60499ZM8.13953 6.49921C8.12703 6.58733 8.30093 6.82264 8.52781 6.85405C8.75422 6.88577 8.94797 6.70171 8.96031 6.61358C8.97265 6.52546 8.7989 6.42827 8.57203 6.39671C8.34515 6.36514 8.15156 6.41108 8.13953 6.49921ZM8.57984 6.94077L8.51625 6.93639C8.37562 6.91686 8.23344 6.82827 8.13609 6.69921C8.10187 6.65389 8.04609 6.56608 8.05719 6.48764C8.07297 6.37264 8.21328 6.30374 8.43219 6.30374C8.48109 6.30374 8.53203 6.30733 8.58328 6.31452C8.70297 6.33108 8.81406 6.36561 8.89609 6.41139C9.03828 6.49077 9.04875 6.57936 9.04234 6.62514C9.02484 6.75217 8.82281 6.94077 8.57984 6.94077ZM8.22219 6.51389C8.22922 6.56827 8.3639 6.74764 8.53922 6.77186L8.58 6.77467C8.74187 6.77467 8.86281 6.64733 8.87703 6.60561C8.86203 6.57717 8.75797 6.50655 8.56062 6.47905C8.51812 6.47304 8.47526 6.46996 8.43234 6.46983C8.30547 6.46983 8.23812 6.49842 8.22219 6.51389ZM15.0355 6.31936C15.0478 6.40749 14.8741 6.6428 14.6473 6.67436C14.4208 6.70592 14.2269 6.52202 14.2144 6.43389C14.2025 6.34577 14.3762 6.24842 14.6028 6.21702C14.8294 6.1853 15.023 6.23139 15.0355 6.31936ZM14.595 6.71936C14.3769 6.71936 14.1886 6.54967 14.1731 6.43952C14.1552 6.30733 14.3728 6.20686 14.5969 6.17577C14.6462 6.16889 14.6952 6.16546 14.7422 6.16546C14.9356 6.16546 15.0637 6.22217 15.0766 6.31374C15.0848 6.37296 15.0394 6.46436 14.9611 6.54686C14.9094 6.60108 14.8008 6.69499 14.6528 6.71546L14.595 6.71936ZM14.7423 6.24858C14.699 6.24858 14.6544 6.25176 14.6086 6.25811C14.3834 6.28952 14.2491 6.37983 14.2556 6.42827C14.2631 6.48155 14.4069 6.63639 14.5952 6.63639L14.6416 6.63311C14.7645 6.61608 14.8569 6.53577 14.9009 6.48952C14.9702 6.41686 14.9977 6.34842 14.9944 6.32514C14.99 6.29421 14.9069 6.24858 14.7423 6.24858ZM15.3619 11.3803C15.3167 11.3803 15.2724 11.3681 15.2336 11.3448C15.1949 11.3216 15.1632 11.2883 15.142 11.2484C15.1207 11.2086 15.1107 11.1637 15.113 11.1186C15.1153 11.0735 15.1298 11.0298 15.155 10.9923C15.6859 10.1994 15.5887 9.39077 15.4948 8.60874C15.4547 8.27561 15.4134 7.93108 15.4241 7.60046C15.435 7.2603 15.4783 6.97967 15.52 6.70827C15.5695 6.38671 15.6164 6.08296 15.597 5.72233C15.5953 5.68964 15.6 5.65693 15.6108 5.62606C15.6217 5.59518 15.6386 5.56675 15.6604 5.54239C15.6823 5.51803 15.7087 5.49822 15.7383 5.48408C15.7678 5.46994 15.7998 5.46175 15.8325 5.45999C15.8652 5.45822 15.8979 5.46291 15.9288 5.47379C15.9596 5.48467 15.9881 5.50152 16.0124 5.52339C16.0616 5.56755 16.0913 5.62944 16.0948 5.69546C16.117 6.10764 16.0641 6.45139 16.0128 6.78405C15.9733 7.04077 15.9323 7.30624 15.9225 7.61639C15.913 7.90921 15.9503 8.22014 15.9898 8.54921C16.0898 9.38077 16.2031 10.3233 15.5694 11.2697C15.5465 11.3037 15.5156 11.3316 15.4794 11.3509C15.4433 11.3702 15.4029 11.3803 15.3619 11.3803Z" fill="white"/>
</g>
<defs>
<clipPath id="clip0_563_43165">
<rect width="20" height="20" fill="white"/>
</clipPath>
</defs>
</svg>
