<svg width="16" height="16" viewBox="0 0 16 16" fill="none" xmlns="http://www.w3.org/2000/svg">
<g clip-path="url(#clip0_414_1558)">
<path d="M7.99992 1.33325L9.34122 4.82064C9.52923 5.30946 9.62323 5.55387 9.76942 5.75946C9.89898 5.94167 10.0582 6.10086 10.2404 6.23042C10.446 6.3766 10.6904 6.47061 11.1792 6.65861L14.6666 7.99992L11.1792 9.34122C10.6904 9.52923 10.446 9.62323 10.2404 9.76942C10.0582 9.89898 9.89898 10.0582 9.76942 10.2404C9.62324 10.446 9.52923 10.6904 9.34122 11.1792L7.99992 14.6666L6.65862 11.1792C6.47061 10.6904 6.3766 10.446 6.23042 10.2404C6.10086 10.0582 5.94167 9.89898 5.75946 9.76942C5.55387 9.62323 5.30946 9.52923 4.82064 9.34122L1.33325 7.99992L4.82064 6.65862C5.30946 6.47061 5.55387 6.3766 5.75946 6.23042C5.94167 6.10086 6.10086 5.94167 6.23042 5.75946C6.3766 5.55387 6.47061 5.30946 6.65861 4.82064L7.99992 1.33325Z" stroke="#101828" stroke-width="1.2" stroke-linecap="round" stroke-linejoin="round"/>
</g>
<defs>
<clipPath id="clip0_414_1558">
<rect width="16" height="16" fill="white"/>
</clipPath>
</defs>
</svg>
